<svg version="1.1" id="Layer_1" xmlns="http://www.w3.org/2000/svg" xmlns:xlink="http://www.w3.org/1999/xlink" x="0px" y="0px"
	 width="100%" viewBox="0 0 2000 510" enable-background="new 0 0 2000 510" xml:space="preserve">
<path fill="#000000" opacity="1.000000" stroke="none" 
	d="
M1382.000000,511.000000 
	C921.333313,511.000000 461.166656,511.000000 1.000000,511.000000 
	C1.000000,341.000000 1.000000,171.000000 1.000000,1.000000 
	C667.666687,1.000000 1334.333374,1.000000 2001.000000,1.000000 
	C2001.000000,171.000000 2001.000000,341.000000 2001.000000,511.000000 
	C1794.833374,511.000000 1588.666626,511.000000 1382.000000,511.000000 
M227.520218,34.972061 
	C224.931671,36.911781 221.724442,38.399826 219.900650,40.897892 
	C217.216110,44.574944 214.259598,46.183678 209.723419,47.324619 
	C180.372559,54.706940 153.139664,66.864006 129.597931,86.196930 
	C122.577477,91.962257 116.088249,96.304527 106.208862,94.313614 
	C97.587090,92.576134 88.582245,92.709953 79.740791,92.102295 
	C73.660927,91.684441 67.573708,91.195679 61.485069,91.120720 
	C49.121151,90.968491 36.754044,91.075226 24.267002,91.075226 
	C21.696972,103.363503 30.655680,115.405357 41.687271,118.911049 
	C51.454281,122.014862 61.840805,123.186600 71.970215,125.125710 
	C77.535507,126.191109 83.134628,127.079796 88.925919,128.084122 
	C78.956238,142.123291 71.195297,156.487488 64.859779,171.653580 
	C56.735794,191.100937 51.459167,211.403381 50.289318,232.321564 
	C49.378754,248.603470 49.298409,265.016205 51.794247,281.410004 
	C55.024364,302.626862 61.046757,322.847046 70.232307,342.106445 
	C77.229233,356.776947 86.142487,370.280487 96.444565,382.948700 
	C106.567307,395.396393 117.535049,406.912079 130.717972,416.006317 
	C142.250900,423.962280 154.330994,431.129883 166.245926,438.522339 
	C168.067505,439.652557 169.085358,440.023865 168.227676,442.824188 
	C165.585968,451.449524 163.772873,460.324493 161.395538,469.036346 
	C159.652420,475.424072 162.686157,479.939911 169.328903,479.943909 
	C178.062302,479.949127 184.571442,475.675476 188.995895,468.453308 
	C192.431122,462.845917 195.258255,456.865967 197.982346,451.752411 
	C212.023666,454.199493 225.592621,457.817078 239.333099,458.669373 
	C260.684753,459.993774 282.225922,459.837341 303.251129,454.814758 
	C337.876892,446.543182 369.115051,431.274597 395.750122,407.476807 
	C414.161224,391.026917 429.523499,371.965302 441.268066,350.114471 
	C455.747620,323.175232 463.880890,294.333557 465.823517,263.940460 
	C466.843292,247.986038 465.819122,232.004333 463.211334,216.052795 
	C459.881348,195.683472 453.617004,176.369324 444.760010,157.922516 
	C436.148987,139.987961 424.706299,123.762566 411.307190,109.070335 
	C400.125854,96.809937 387.400909,86.255661 373.584564,76.978210 
	C359.751434,67.689453 345.068970,60.002686 329.473907,54.388081 
	C312.423798,48.249634 294.838013,43.933449 276.580139,42.920059 
	C274.551910,42.807484 272.498932,41.278378 270.663483,40.088409 
	C268.894684,38.941647 267.503387,37.220760 265.756042,36.031509 
	C253.544922,27.720516 240.923843,28.183008 227.520218,34.972061 
M1415.305176,203.151382 
	C1413.005249,201.385529 1410.705322,199.619659 1407.983765,197.530106 
	C1415.175171,193.368820 1419.430664,187.165146 1420.502441,179.159470 
	C1421.114746,174.585358 1421.089844,169.890152 1420.966309,165.259750 
	C1420.519287,148.511734 1410.268066,139.059326 1394.935669,137.392929 
	C1381.309937,135.912033 1367.461914,136.437286 1353.710205,136.173172 
	C1347.264038,136.049377 1340.813721,136.151978 1334.328369,136.151978 
	C1334.328369,178.854614 1334.328369,221.060898 1334.328369,263.548676 
	C1352.640869,263.548676 1370.620483,263.598358 1388.599243,263.503052 
	C1391.850098,263.485840 1395.157959,263.158295 1398.336060,262.485443 
	C1410.518433,259.906158 1419.502686,253.238876 1422.652832,240.830963 
	C1424.049438,235.330521 1423.850708,229.368439 1423.947632,223.608688 
	C1424.077393,215.887787 1421.539673,209.084167 1415.305176,203.151382 
M901.999207,162.924606 
	C900.723877,158.916016 900.083557,154.547714 898.054810,150.965836 
	C891.812378,139.944397 880.844116,136.748138 869.368164,136.320404 
	C852.063904,135.675446 834.717651,136.147964 817.389282,136.173752 
	C816.626221,136.174881 815.863525,136.456726 815.238586,136.580490 
	C815.238586,178.964355 815.238586,221.059387 815.238586,263.545074 
	C835.277954,263.545074 855.089661,263.981995 874.864075,263.314514 
	C882.049805,263.071991 889.162842,260.330414 894.883423,255.164001 
	C906.137451,245.000320 906.125061,231.800278 904.397156,218.467270 
	C903.135315,208.730118 897.146790,201.894363 887.974548,197.737946 
	C893.898804,194.880203 898.418945,190.872375 899.647705,184.803162 
	C901.037048,177.940277 901.270142,170.843323 901.999207,162.924606 
M602.443237,263.547272 
	C606.524475,263.213043 610.666443,263.212830 614.675781,262.483521 
	C628.073547,260.046326 637.975830,253.232666 643.296936,240.092422 
	C646.735840,231.600311 648.267883,222.954483 649.165405,213.894730 
	C651.002808,195.347290 650.541992,177.104370 643.890198,159.528397 
	C639.944763,149.103546 632.551880,141.546722 621.332703,139.289291 
	C612.906189,137.593781 604.247620,136.593613 595.656128,136.281830 
	C582.240479,135.794968 568.794128,136.152908 555.286621,136.152908 
	C555.286621,178.842728 555.286621,221.027664 555.286621,263.547272 
	C570.870728,263.547272 586.164795,263.547272 602.443237,263.547272 
M1603.994141,194.500000 
	C1603.994141,217.306534 1603.994141,240.113083 1603.994141,263.677551 
	C1608.524414,263.977631 1612.885254,264.478607 1617.250122,264.515625 
	C1630.085083,264.624451 1642.982178,265.296387 1655.734253,264.261017 
	C1663.187256,263.655853 1670.283936,260.342377 1675.452271,253.806763 
	C1681.745483,245.848938 1683.334351,236.505447 1683.825806,227.066818 
	C1684.314209,217.684265 1684.092407,208.125122 1682.852295,198.820648 
	C1680.088257,178.081451 1671.656372,169.154999 1650.886475,168.475845 
	C1642.361084,168.197083 1633.741455,170.802826 1624.907837,172.135193 
	C1624.907837,159.431076 1624.907837,145.997070 1624.907837,132.396484 
	C1617.820190,132.396484 1611.093750,132.396484 1603.994141,132.396484 
	C1603.994141,152.929825 1603.994141,173.214920 1603.994141,194.500000 
M1928.381714,206.310867 
	C1920.378662,206.985687 1912.227051,206.928467 1904.409058,208.515091 
	C1893.931885,210.641388 1884.737793,215.422607 1882.624268,227.395599 
	C1881.798584,232.073151 1881.841187,236.975861 1882.054077,241.750809 
	C1882.609497,254.208450 1890.771118,264.502258 1901.638794,265.402344 
	C1913.431763,266.379059 1925.207031,265.703339 1936.390625,260.852509 
	C1937.958374,260.172394 1940.461914,260.404663 1942.036621,261.198303 
	C1949.266846,264.842529 1956.728516,266.465088 1964.886353,265.188965 
	C1964.886353,260.029022 1964.886353,255.061432 1964.886353,250.133652 
	C1957.957642,247.499146 1957.010132,246.072769 1957.009888,238.391403 
	C1957.009521,224.073013 1957.318604,209.745514 1956.897217,195.439529 
	C1956.631104,186.402756 1954.386353,177.423203 1945.696777,172.807251 
	C1940.720459,170.163818 1934.586670,168.406448 1929.000610,168.473526 
	C1917.408936,168.612717 1905.809937,170.013916 1894.263550,171.330795 
	C1887.569214,172.094299 1886.389526,173.645462 1887.009399,178.438736 
	C1887.423950,181.644745 1887.996216,184.830368 1888.588257,188.600540 
	C1892.938599,188.166000 1897.320557,187.679626 1901.712036,187.303329 
	C1906.124756,186.925186 1910.626587,187.078217 1914.950684,186.262955 
	C1929.320068,183.553711 1936.313843,189.227722 1935.967529,203.708649 
	C1935.959717,204.030518 1935.848511,204.349930 1935.730347,204.950882 
	C1933.669312,205.387207 1931.490112,205.848541 1928.381714,206.310867 
M1493.281128,260.488678 
	C1494.733765,260.549133 1496.493408,260.096924 1497.589233,260.753143 
	C1504.788940,265.064026 1512.481445,266.283417 1520.674805,265.286469 
	C1521.046875,260.032013 1521.403442,254.995636 1521.758789,249.978043 
	C1514.497314,247.471786 1513.039673,245.419479 1513.019897,237.314621 
	C1512.983765,222.497025 1513.087524,207.678680 1512.975220,192.861847 
	C1512.923340,186.016708 1510.623657,179.936996 1505.446045,175.253250 
	C1499.696655,170.052338 1492.459473,168.319168 1485.121460,168.360870 
	C1475.619751,168.414886 1466.078125,169.175690 1456.637329,170.321609 
	C1443.851318,171.873596 1443.881592,172.154282 1443.998047,185.172440 
	C1444.006470,186.117661 1444.126343,187.061874 1444.242065,188.667068 
	C1447.923706,188.225876 1451.300171,187.632935 1454.698730,187.450577 
	C1463.598755,186.973068 1472.514038,186.315125 1481.411621,186.458420 
	C1485.794312,186.529007 1490.225220,188.355179 1491.489502,193.417786 
	C1492.425171,197.164764 1492.723633,201.070862 1493.404907,205.558243 
	C1487.738403,205.853806 1482.835571,205.958191 1477.964233,206.405457 
	C1472.939697,206.866806 1467.917969,207.497391 1462.943970,208.342392 
	C1449.232422,210.671768 1442.179932,215.054367 1439.163940,226.245361 
	C1436.971191,234.382065 1437.771606,242.507996 1440.476929,250.454803 
	C1443.477539,259.269623 1449.853149,264.584900 1458.838623,265.377563 
	C1470.282104,266.387146 1481.801392,265.956879 1493.281128,260.488678 
M1245.809326,264.181488 
	C1257.465576,261.480957 1264.339600,253.721420 1267.987061,242.805862 
	C1273.449097,226.459503 1273.205688,209.779526 1268.742432,193.434738 
	C1265.495850,181.545578 1258.281494,172.705658 1245.000488,170.056213 
	C1236.371826,168.334854 1227.966431,167.791626 1219.246216,169.126923 
	C1206.613770,171.061295 1197.045532,176.794601 1193.081787,189.391922 
	C1191.094727,195.707001 1190.304688,202.398849 1188.976318,208.920929 
	C1186.580200,220.684036 1188.491821,232.168839 1192.123413,243.272614 
	C1195.881348,254.763367 1203.556519,263.094757 1216.094482,264.358521 
	C1225.646973,265.321411 1235.376953,264.522888 1245.809326,264.181488 
M1716.848511,173.248734 
	C1712.592041,177.917007 1706.876099,181.911880 1704.353394,187.380020 
	C1696.848755,203.646851 1697.396118,221.052597 1701.169800,238.111755 
	C1704.334473,252.418549 1712.265625,263.100494 1728.322388,264.562103 
	C1735.864746,265.248657 1743.558350,266.093689 1751.025146,265.326782 
	C1760.098999,264.394806 1768.568359,260.833252 1773.870972,252.695969 
	C1783.481567,237.947510 1782.894165,221.269226 1781.507324,204.839630 
	C1780.919556,197.876846 1778.557739,190.620789 1775.253296,184.431702 
	C1769.981812,174.558197 1760.645142,170.299911 1749.510376,168.927887 
	C1738.371216,167.555313 1727.749512,168.012726 1716.848511,173.248734 
M1018.013123,244.946869 
	C1012.353821,240.099930 1012.267700,233.212280 1012.130859,226.776245 
	C1011.766357,209.628754 1012.013062,192.468414 1011.996643,175.313187 
	C1011.995117,173.711121 1011.851318,172.109177 1011.775513,170.547455 
	C1004.656799,170.547455 997.926453,170.547455 991.993958,170.547455 
	C991.993958,193.948624 991.507935,217.038101 992.320679,240.081802 
	C992.535645,246.177979 995.432251,253.255463 999.401794,257.922516 
	C1008.042725,268.082062 1020.500854,266.362671 1032.075684,264.751221 
	C1037.397583,264.010284 1042.434204,261.219330 1047.804077,259.284485 
	C1047.935059,260.508087 1048.083740,261.895966 1048.232178,263.282410 
	C1055.200195,263.282410 1061.971558,263.282410 1068.625366,263.282410 
	C1068.625366,232.143829 1068.625366,201.273727 1068.625366,170.448395 
	C1061.639648,170.448395 1055.037231,170.448395 1047.993286,170.448395 
	C1047.993286,172.290527 1047.993286,173.912018 1047.993286,175.533508 
	C1047.993286,196.352966 1048.026733,217.172607 1047.925781,237.991577 
	C1047.918213,239.551743 1047.376587,242.061981 1046.361694,242.515320 
	C1037.505493,246.471161 1028.331299,248.498260 1018.013123,244.946869 
M1106.351807,170.225632 
	C1101.726929,170.225632 1097.102173,170.225632 1092.274414,170.225632 
	C1092.274414,201.489700 1092.274414,232.341919 1092.274414,263.247620 
	C1099.301025,263.247620 1106.045410,263.247620 1113.004639,263.247620 
	C1113.004639,242.309052 1113.004517,221.667358 1113.004517,201.025665 
	C1113.004517,191.428314 1114.466553,189.733490 1124.029297,188.292725 
	C1124.842041,188.170288 1125.698120,188.270508 1126.489624,188.081314 
	C1138.101074,185.305359 1147.592773,189.080933 1148.182007,200.751480 
	C1148.280151,202.696198 1148.951538,204.623032 1148.958618,206.559601 
	C1149.021851,223.878311 1148.989136,241.197327 1149.005981,258.516266 
	C1149.007568,260.105164 1149.157104,261.693939 1149.233521,263.193359 
	C1156.375977,263.193359 1163.099243,263.193359 1169.004395,263.193359 
	C1169.004395,240.266876 1170.252075,217.605484 1168.611572,195.155167 
	C1167.287109,177.032501 1160.280029,169.497955 1139.690308,168.269897 
	C1131.061523,167.755234 1122.994263,170.233017 1115.356079,174.174820 
	C1114.709839,174.508347 1113.927002,174.577240 1113.176514,174.777451 
	C1113.012451,173.148849 1112.872070,171.753723 1112.718140,170.225632 
	C1110.610352,170.225632 1108.955078,170.225632 1106.351807,170.225632 
M1819.188599,191.661713 
	C1822.467163,187.614716 1827.324707,187.395203 1831.729858,187.445999 
	C1838.909790,187.528824 1846.075562,188.631851 1853.252197,189.248001 
	C1857.437378,189.607300 1861.632080,189.856949 1865.689941,190.146500 
	C1866.118042,184.037918 1866.517578,178.337570 1866.933716,172.400543 
	C1865.278198,172.307083 1863.954712,172.389984 1862.698853,172.137268 
	C1849.061401,169.392883 1835.369873,166.686523 1821.434692,169.294388 
	C1813.027832,170.867676 1804.887939,173.900314 1800.354614,181.776215 
	C1796.551636,188.383179 1795.385132,195.560379 1796.763550,203.537231 
	C1798.362549,212.791473 1802.264404,219.188141 1811.561035,221.530792 
	C1821.096313,223.933594 1830.698120,226.071045 1840.240479,228.446808 
	C1843.982788,229.378510 1847.361938,230.809555 1848.027100,235.440857 
	C1848.678223,239.973557 1847.171753,243.780106 1843.091431,245.202087 
	C1838.875122,246.671539 1834.149780,247.289886 1829.662354,247.225266 
	C1823.311157,247.133820 1816.973633,246.078262 1810.630981,245.427643 
	C1806.600586,245.014221 1802.571655,244.587906 1798.231079,244.134949 
	C1798.231079,250.578552 1798.231079,256.320282 1798.231079,262.030029 
	C1802.679443,262.774780 1806.983154,263.992889 1811.320312,264.126343 
	C1823.456787,264.499847 1835.718384,265.478394 1847.718994,264.212463 
	C1858.403076,263.085419 1866.494507,256.571136 1868.568970,245.130447 
	C1869.387695,240.614822 1869.021240,235.861877 1868.985840,231.218567 
	C1868.914795,221.894516 1863.337036,213.948212 1854.358765,211.406708 
	C1844.737061,208.683090 1834.929688,206.611938 1825.191162,204.306900 
	C1818.210693,202.654617 1816.289062,199.174225 1819.188599,191.661713 
M959.189087,194.252472 
	C964.149170,192.931091 969.140808,191.712753 974.045715,190.211273 
	C975.181824,189.863510 976.833740,188.579651 976.868103,187.674179 
	C977.112366,181.232681 976.998291,174.777573 976.998291,166.908569 
	C966.142700,171.381805 956.250671,175.458008 945.919128,179.715286 
	C945.919128,176.805222 945.919128,173.613327 945.919128,170.431976 
	C938.692200,170.431976 932.088074,170.431976 925.297974,170.431976 
	C925.297974,201.500580 925.297974,232.362244 925.297974,263.214844 
	C932.340149,263.214844 939.074097,263.214844 946.004700,263.214844 
	C946.004700,245.730072 946.526123,228.552429 945.785217,211.429398 
	C945.413452,202.838684 946.659180,196.824280 956.156982,195.255630 
	C956.924683,195.128845 957.630798,194.628891 959.189087,194.252472 
M1537.995361,210.500000 
	C1537.995361,228.080261 1537.995361,245.660522 1537.995361,263.205841 
	C1545.354370,263.205841 1552.083618,263.205841 1559.004639,263.205841 
	C1559.004639,261.208160 1559.004517,259.549316 1559.004517,257.890442 
	C1559.004517,239.731339 1558.937622,221.571594 1559.114014,203.414200 
	C1559.130615,201.708038 1560.299072,198.948196 1561.579712,198.491547 
	C1570.030273,195.478104 1578.678589,193.023758 1587.202881,190.207031 
	C1588.310059,189.841171 1589.840698,188.470215 1589.876099,187.516571 
	C1590.113647,181.118362 1589.999512,174.707077 1589.999512,166.880035 
	C1578.965576,171.383835 1569.031494,175.438644 1558.712036,179.650803 
	C1558.712036,176.539536 1558.712036,173.473007 1558.712036,170.443756 
	C1551.661133,170.443756 1545.058105,170.443756 1537.995361,170.443756 
	C1537.995361,183.604233 1537.995361,196.552124 1537.995361,210.500000 
M700.829590,175.263611 
	C697.682190,177.133255 694.534790,179.002884 690.763794,181.242935 
	C690.763794,177.208527 690.763794,173.821503 690.763794,170.430328 
	C684.028687,170.430328 677.758240,170.430328 671.294556,170.430328 
	C671.294556,201.496887 671.294556,232.358231 671.294556,263.219055 
	C678.334656,263.219055 685.070190,263.219055 692.004700,263.219055 
	C692.004700,243.073273 692.085999,223.252274 691.926575,203.433212 
	C691.899231,200.032791 693.048279,198.225632 696.196838,197.303925 
	C704.042480,195.007187 711.879333,192.676117 719.673218,190.211655 
	C720.903809,189.822540 722.811890,188.704269 722.846252,187.859680 
	C723.111450,181.337357 722.992371,174.799423 722.992371,167.206894 
	C715.124695,170.117889 708.355774,172.622345 700.829590,175.263611 
M1364.803833,356.340729 
	C1363.526245,359.791809 1362.248657,363.242920 1360.706665,367.408142 
	C1354.072144,348.635986 1347.739014,330.716492 1341.490112,313.035156 
	C1337.625610,313.035156 1333.888184,313.035156 1330.310425,313.035156 
	C1330.310425,334.812744 1330.310425,356.242554 1330.310425,377.893585 
	C1332.373779,377.795166 1334.098022,377.712891 1336.077148,377.618469 
	C1336.077148,358.263275 1336.077148,339.368042 1336.077148,319.346588 
	C1337.026611,320.937195 1337.530640,321.535583 1337.774536,322.225952 
	C1343.529419,338.513275 1349.337524,354.782837 1354.918579,371.129852 
	C1356.016357,374.345551 1357.271362,375.938263 1361.049805,376.009918 
	C1364.963135,376.084106 1365.586548,373.991913 1366.345581,371.133850 
	C1367.010132,368.631683 1368.142456,366.256317 1369.021118,363.808044 
	C1374.106201,349.639771 1379.177368,335.466492 1384.253174,321.294891 
	C1384.560181,321.354706 1384.867310,321.414520 1385.174316,321.474335 
	C1385.174316,340.188538 1385.174316,358.902740 1385.174316,377.519775 
	C1387.663086,377.519775 1389.719604,377.519775 1391.730957,377.519775 
	C1391.730957,355.784973 1391.730957,334.377167 1391.730957,312.830200 
	C1387.811646,312.830200 1384.163940,312.830200 1380.170288,312.830200 
	C1375.149780,326.977844 1370.076782,341.273712 1364.803833,356.340729 
M1257.577026,368.752625 
	C1260.487915,359.061920 1260.205200,350.294403 1250.240967,344.469574 
	C1250.719849,343.816986 1250.938721,343.346222 1251.300903,343.051025 
	C1257.091675,338.329376 1257.931641,331.783417 1256.671143,325.261505 
	C1255.456421,318.977295 1251.524780,314.186676 1244.459595,313.713135 
	C1234.444824,313.041931 1224.407593,312.708313 1214.309570,312.227051 
	C1214.309570,334.560516 1214.309570,356.077698 1214.309570,377.853882 
	C1224.585205,377.853882 1234.570312,378.302216 1244.486816,377.671539 
	C1249.729736,377.338074 1255.213989,375.662720 1257.577026,368.752625 
M1662.518677,312.678833 
	C1658.413208,312.678833 1654.307861,312.678833 1650.227051,312.678833 
	C1650.227051,334.643707 1650.227051,356.065308 1650.227051,377.608734 
	C1652.195435,377.608734 1653.919067,377.608734 1656.056152,377.608734 
	C1656.056152,369.289429 1656.056152,361.205811 1656.056152,352.807220 
	C1661.429443,352.807220 1666.394043,352.961060 1671.342529,352.745941 
	C1674.041992,352.628571 1675.525391,353.463318 1676.698364,355.972443 
	C1680.101440,363.251984 1683.794312,370.396057 1687.302002,377.449463 
	C1689.870728,377.449463 1692.384277,377.449463 1695.268921,377.449463 
	C1690.877441,368.505798 1686.724487,360.047760 1682.470581,351.384186 
	C1688.181519,349.919678 1691.650757,346.670441 1692.784058,341.826874 
	C1693.782593,337.559570 1693.896973,333.030029 1693.955444,328.610382 
	C1694.058838,320.799438 1689.518677,315.008575 1681.709961,313.790771 
	C1675.731445,312.858429 1669.583984,313.009613 1662.518677,312.678833 
M992.990173,321.566040 
	C992.990173,340.281860 992.990173,358.997681 992.990173,377.852509 
	C1001.900269,377.852509 1010.077026,377.396820 1018.180420,377.973114 
	C1027.362427,378.626160 1034.675781,371.346619 1037.031860,364.327637 
	C1040.679565,353.460876 1041.121704,342.336700 1038.698608,331.327515 
	C1036.001709,319.073914 1030.833984,314.120300 1020.562012,312.917114 
	C1011.566040,311.863434 1002.348938,312.697205 992.990173,312.697205 
	C992.990173,315.614288 992.990173,318.102417 992.990173,321.566040 
M870.331909,359.960510 
	C868.803406,365.786224 867.274963,371.611938 865.680237,377.690308 
	C868.618225,377.690308 870.572571,377.690308 872.428711,377.690308 
	C874.106384,371.975433 875.732727,366.435516 877.379883,360.824524 
	C882.856934,360.824524 888.003113,360.824493 893.149292,360.824493 
	C905.518494,360.824493 906.006653,360.717041 908.567993,372.350708 
	C909.824524,378.058075 912.328125,378.559479 917.076355,377.433014 
	C910.805725,355.670471 904.620422,334.203979 898.418640,312.680359 
	C894.586304,312.680359 890.896973,312.401184 887.286682,312.813934 
	C885.784180,312.985748 883.556091,314.367950 883.176697,315.649353 
	C878.885193,330.143860 874.888550,344.725677 870.331909,359.960510 
M1627.009033,343.547668 
	C1625.011353,336.667297 1622.800903,329.840057 1621.066284,322.893982 
	C1618.510254,312.657898 1618.650513,312.810120 1608.169556,312.574402 
	C1604.677002,312.495819 1603.192749,313.583862 1602.290283,316.842499 
	C1596.695312,337.043671 1590.944336,357.201691 1585.241821,377.385468 
	C1589.887573,378.888885 1593.028320,377.972504 1593.811401,372.441681 
	C1594.172241,369.893036 1595.460083,367.477539 1595.839355,364.929016 
	C1596.326416,361.655792 1597.853516,360.521637 1601.130859,360.759888 
	C1604.942383,361.037018 1608.790161,360.784821 1612.621338,360.835449 
	C1616.600098,360.888062 1621.571411,359.625824 1624.267700,361.536530 
	C1626.804810,363.334442 1627.344604,368.445740 1628.037231,372.232086 
	C1629.003906,377.516144 1631.789429,379.021240 1636.739990,377.561615 
	C1633.514526,366.547638 1630.268433,355.463074 1627.009033,343.547668 
M1068.515015,377.858398 
	C1077.613770,377.858398 1086.712646,377.858398 1096.072876,377.858398 
	C1095.969360,375.493317 1095.892944,373.750366 1095.798584,371.596130 
	C1084.680420,371.596130 1073.943604,371.596130 1063.329590,371.596130 
	C1063.329590,363.410675 1063.329590,355.660309 1063.329590,347.507874 
	C1072.376709,347.507874 1081.110962,347.507874 1090.074097,347.507874 
	C1089.963501,345.348175 1089.875122,343.621948 1089.777832,341.720825 
	C1080.705322,341.720825 1072.060791,341.720825 1063.346680,341.720825 
	C1063.346680,333.954895 1063.346680,326.398285 1063.346680,318.601074 
	C1074.303345,318.601074 1084.928345,318.601074 1095.781250,318.601074 
	C1095.781250,316.590546 1095.781250,314.825439 1095.781250,313.032196 
	C1082.525269,313.032196 1069.341064,313.032196 1056.300293,313.032196 
	C1056.300293,334.790741 1056.300293,356.188965 1056.300293,377.858398 
	C1060.248901,377.858398 1063.885986,377.858398 1068.515015,377.858398 
M1152.532715,371.813385 
	C1149.101074,371.813385 1145.669312,371.813385 1142.316772,371.813385 
	C1142.316772,363.440887 1142.316772,355.692871 1142.316772,347.544678 
	C1151.355103,347.544678 1160.094238,347.544678 1169.066528,347.544678 
	C1168.967163,345.386444 1168.887329,343.650238 1168.789307,341.521362 
	C1159.672119,341.521362 1150.952881,341.521362 1142.325928,341.521362 
	C1142.325928,333.682037 1142.325928,326.262482 1142.325928,318.437286 
	C1153.366943,318.437286 1164.098633,318.437286 1175.077637,318.437286 
	C1174.960815,316.282379 1174.867432,314.559235 1174.783569,313.011963 
	C1161.270874,313.011963 1148.218262,313.011963 1135.284668,313.011963 
	C1135.284668,334.754181 1135.284668,356.156464 1135.284668,377.567169 
	C1148.648804,377.567169 1161.711792,377.567169 1174.725586,377.567169 
	C1174.725586,375.522156 1174.725586,373.783905 1174.725586,371.813385 
	C1167.468506,371.813385 1160.496704,371.813385 1152.532715,371.813385 
M1312.283691,371.819244 
	C1302.338989,371.819244 1292.394165,371.819244 1282.235352,371.819244 
	C1282.235352,363.634583 1282.235352,355.898865 1282.235352,347.750854 
	C1291.196045,347.750854 1299.946167,347.750854 1308.826538,347.750854 
	C1308.826538,345.560913 1308.826538,343.785187 1308.826538,341.679260 
	C1299.871826,341.679260 1291.098633,341.679260 1282.249390,341.679260 
	C1282.249390,333.914734 1282.249390,326.482910 1282.249390,318.651215 
	C1292.897705,318.651215 1303.317871,318.651215 1313.788574,318.651215 
	C1313.788574,316.478455 1313.788574,314.710358 1313.788574,312.893890 
	C1300.786743,312.893890 1288.011230,312.893890 1275.381836,312.893890 
	C1275.381836,334.657104 1275.381836,356.197540 1275.381836,377.638184 
	C1288.382568,377.638184 1300.986084,377.638184 1314.278931,377.638184 
	C1313.899658,375.539429 1313.569092,373.709961 1312.283691,371.819244 
M1457.467529,341.744781 
	C1452.392578,341.744781 1447.317627,341.744781 1442.311279,341.744781 
	C1442.311279,333.720123 1442.311279,326.296875 1442.311279,318.472290 
	C1453.009521,318.472290 1463.413574,318.472290 1474.069580,318.472290 
	C1473.964600,316.316559 1473.880249,314.585205 1473.802734,312.992249 
	C1460.635010,312.992249 1447.906128,312.992249 1435.269897,312.992249 
	C1435.269897,334.718719 1435.269897,356.125031 1435.269897,377.579102 
	C1448.285278,377.579102 1461.014526,377.579102 1473.739990,377.579102 
	C1473.739990,375.554657 1473.739990,373.812958 1473.739990,371.644897 
	C1463.069214,371.644897 1452.665161,371.644897 1442.307617,371.644897 
	C1442.307617,363.462769 1442.307617,355.716339 1442.307617,347.571014 
	C1451.339722,347.571014 1460.083130,347.571014 1468.715332,347.571014 
	C1468.715332,345.419342 1468.715332,343.678589 1468.715332,341.744781 
	C1465.096069,341.744781 1461.773804,341.744781 1457.467529,341.744781 
M974.004700,353.480225 
	C974.004700,339.913300 974.004700,326.346375 974.004700,312.864258 
	C971.320740,312.864258 969.367554,312.864258 966.995300,312.864258 
	C966.995300,314.663452 966.995361,316.293823 966.995361,317.924225 
	C966.995361,332.085144 966.715759,346.254700 967.152283,360.402130 
	C967.298340,365.135590 963.341064,370.422913 959.124756,371.629150 
	C955.884338,372.556213 952.356018,372.728302 948.949707,372.772247 
	C941.454529,372.868896 936.012817,367.291779 936.006165,359.825928 
	C935.999207,351.995789 936.004639,344.165619 936.004639,336.335480 
	C936.004639,328.543549 936.004700,320.751617 936.004700,312.928162 
	C933.465698,312.928162 931.396240,312.928162 928.998108,312.928162 
	C928.998108,329.627747 928.660034,346.102783 929.147400,362.553375 
	C929.375183,370.240967 933.164124,376.721008 941.591064,377.829010 
	C947.797668,378.645081 954.218323,378.239807 960.513794,377.870605 
	C968.453979,377.404907 972.128357,371.821594 973.765869,364.926178 
	C974.553650,361.608978 973.968262,357.965759 974.004700,353.480225 
M825.834473,378.862854 
	C829.495605,378.864441 833.157959,378.803528 836.817566,378.879303 
	C848.212585,379.115173 855.139526,375.436127 856.799805,362.965393 
	C857.920776,354.545746 856.393311,345.913269 845.706177,343.564941 
	C839.931641,342.296112 834.269775,340.475067 828.612610,338.723602 
	C823.168091,337.037933 821.756104,334.517975 822.016052,327.724518 
	C822.207214,322.728699 825.043091,319.261536 829.664062,318.918365 
	C837.836792,318.311401 846.086975,318.748230 854.510010,318.748230 
	C855.613831,314.209015 855.249573,313.040741 851.443176,312.734009 
	C844.885315,312.205566 838.246033,311.315887 831.740173,311.830811 
	C821.726440,312.623322 816.566406,316.563934 815.072815,325.388702 
	C813.248840,336.165833 817.344055,342.770630 827.321289,345.819305 
	C831.616394,347.131744 836.107239,347.793823 840.491333,348.827148 
	C846.384155,350.216034 849.862000,354.023468 849.983643,359.097870 
	C850.187744,367.615784 845.160950,372.912079 836.610046,372.764709 
	C829.782349,372.647034 822.961670,372.120544 815.892944,371.763092 
	C816.029907,374.224213 816.126892,375.967377 816.203186,377.338287 
	C819.456665,377.893494 822.178101,378.357910 825.834473,378.862854 
M1496.466797,320.761475 
	C1499.991089,319.752472 1503.507568,317.946442 1507.041504,317.911224 
	C1513.166748,317.850098 1519.302979,318.885315 1525.752808,319.490631 
	C1526.151245,316.372314 1527.135254,313.050323 1522.250854,312.703247 
	C1516.012451,312.260040 1509.730103,311.449829 1503.521729,311.793732 
	C1492.897827,312.382233 1487.713257,316.575836 1486.074097,325.122864 
	C1483.959473,336.148499 1487.943359,342.586731 1498.407349,345.842377 
	C1502.391846,347.082123 1506.521606,347.863007 1510.598633,348.794464 
	C1517.629761,350.400818 1521.346069,353.585510 1520.910522,360.732300 
	C1520.426392,368.679688 1514.230957,373.302368 1507.699951,372.837738 
	C1500.981567,372.359802 1494.247803,372.099304 1487.177979,371.725525 
	C1487.417114,374.227173 1483.564209,377.571869 1489.333374,377.858124 
	C1496.247681,378.201294 1503.170532,378.879517 1510.073730,378.719543 
	C1513.481812,378.640594 1517.080933,377.475677 1520.194824,375.974792 
	C1526.702881,372.838165 1527.779907,366.162750 1527.796387,360.174591 
	C1527.822021,350.797821 1526.593262,346.269379 1516.842651,343.668610 
	C1511.882568,342.345520 1506.938843,340.949921 1501.945923,339.762390 
	C1492.550293,337.527802 1489.733765,329.060516 1496.466797,320.761475 
M1556.363647,318.843658 
	C1556.572021,326.443542 1556.897217,334.042450 1556.961670,341.643524 
	C1557.062866,353.594055 1556.988525,365.546051 1556.988525,377.605957 
	C1559.199951,377.605957 1560.921875,377.605957 1563.041016,377.605957 
	C1563.041016,357.942047 1563.041016,338.520874 1563.041016,318.688538 
	C1570.185425,318.688538 1576.938110,318.688538 1583.807129,318.688538 
	C1583.807129,316.500153 1583.807129,314.729706 1583.807129,312.880859 
	C1567.828369,312.880859 1552.054199,312.880859 1536.235352,312.880859 
	C1536.235352,314.852448 1536.235352,316.612671 1536.235352,318.747375 
	C1542.778320,318.747375 1549.081299,318.747375 1556.363647,318.843658 
M749.000610,262.084320 
	C749.000610,253.644424 749.000610,245.204544 749.000610,236.670029 
	C741.071777,236.670029 733.657349,236.670029 726.259399,236.670029 
	C726.259399,245.707962 726.259399,254.458771 726.259399,262.989319 
	C733.956848,262.989319 741.373840,262.989319 749.000610,262.084320 
M952.625305,294.381378 
	C948.434204,296.449768 944.243042,298.518158 939.956421,300.633698 
	C940.961731,302.585571 941.689697,303.998962 942.526855,305.624329 
	C949.495300,302.630188 956.234009,299.734772 963.198669,296.742279 
	C961.847412,294.250488 960.857239,292.424530 959.903015,290.664825 
	C957.325012,291.898285 955.261719,292.885468 952.625305,294.381378 
z"/>
<path fill="#FEFEFE" opacity="1.000000" stroke="none" 
	d="
M227.798782,34.707634 
	C240.923843,28.183008 253.544922,27.720516 265.756042,36.031509 
	C267.503387,37.220760 268.894684,38.941647 270.663483,40.088409 
	C272.498932,41.278378 274.551910,42.807484 276.580139,42.920059 
	C294.838013,43.933449 312.423798,48.249634 329.473907,54.388081 
	C345.068970,60.002686 359.751434,67.689453 373.584564,76.978210 
	C387.400909,86.255661 400.125854,96.809937 411.307190,109.070335 
	C424.706299,123.762566 436.148987,139.987961 444.760010,157.922516 
	C453.617004,176.369324 459.881348,195.683472 463.211334,216.052795 
	C465.819122,232.004333 466.843292,247.986038 465.823517,263.940460 
	C463.880890,294.333557 455.747620,323.175232 441.268066,350.114471 
	C429.523499,371.965302 414.161224,391.026917 395.750122,407.476807 
	C369.115051,431.274597 337.876892,446.543182 303.251129,454.814758 
	C282.225922,459.837341 260.684753,459.993774 239.333099,458.669373 
	C225.592621,457.817078 212.023666,454.199493 197.982346,451.752411 
	C195.258255,456.865967 192.431122,462.845917 188.995895,468.453308 
	C184.571442,475.675476 178.062302,479.949127 169.328903,479.943909 
	C162.686157,479.939911 159.652420,475.424072 161.395538,469.036346 
	C163.772873,460.324493 165.585968,451.449524 168.227676,442.824188 
	C169.085358,440.023865 168.067505,439.652557 166.245926,438.522339 
	C154.330994,431.129883 142.250900,423.962280 130.717972,416.006317 
	C117.535049,406.912079 106.567307,395.396393 96.444565,382.948700 
	C86.142487,370.280487 77.229233,356.776947 70.232307,342.106445 
	C61.046757,322.847046 55.024364,302.626862 51.794247,281.410004 
	C49.298409,265.016205 49.378754,248.603470 50.289318,232.321564 
	C51.459167,211.403381 56.735794,191.100937 64.859779,171.653580 
	C71.195297,156.487488 78.956238,142.123291 88.925919,128.084122 
	C83.134628,127.079796 77.535507,126.191109 71.970215,125.125710 
	C61.840805,123.186600 51.454281,122.014862 41.687271,118.911049 
	C30.655680,115.405357 21.696972,103.363503 24.267002,91.075226 
	C36.754044,91.075226 49.121151,90.968491 61.485069,91.120720 
	C67.573708,91.195679 73.660927,91.684441 79.740791,92.102295 
	C88.582245,92.709953 97.587090,92.576134 106.208862,94.313614 
	C116.088249,96.304527 122.577477,91.962257 129.597931,86.196930 
	C153.139664,66.864006 180.372559,54.706940 209.723419,47.324619 
	C214.259598,46.183678 217.216110,44.574944 219.900650,40.897892 
	C221.724442,38.399826 224.931671,36.911781 227.798782,34.707634 
M352.320953,212.592865 
	C348.931610,220.658630 345.542267,228.724411 342.067505,236.993439 
	C353.682556,242.198639 364.088959,250.217575 370.808105,261.586151 
	C381.279968,279.304230 383.782013,298.476837 377.102661,318.320984 
	C371.313232,335.521149 359.803741,348.612488 345.722992,359.347107 
	C326.130310,374.283875 303.843689,384.095123 280.221863,390.632904 
	C271.570831,393.027283 262.581879,395.509766 253.324356,392.874298 
	C249.043015,391.655457 246.140350,387.846710 245.987976,383.016205 
	C245.851456,378.687805 247.897186,376.593628 252.043472,375.143707 
	C275.114136,367.076111 297.472351,357.353851 317.151794,342.614288 
	C327.563995,334.815796 337.248535,326.127594 342.205719,313.326813 
	C346.424103,302.433899 342.293091,290.749359 331.728058,285.461151 
	C319.929810,279.555695 307.216461,280.470367 295.300415,282.061737 
	C277.576965,284.428711 260.152588,289.341370 242.760895,293.795197 
	C227.093231,297.807556 211.476578,300.418243 194.829391,297.298431 
	C195.105530,294.892578 195.313690,292.640259 195.629471,290.403137 
	C197.069641,280.200500 198.582596,270.007965 199.986237,259.800354 
	C201.124222,251.524567 202.110199,243.227966 203.225098,234.948883 
	C204.446472,225.879150 205.724686,216.817017 207.003571,207.755157 
	C208.213211,199.184128 209.737808,190.645584 210.586777,182.039764 
	C211.171753,176.110016 214.452408,169.209900 208.335831,164.561371 
	C202.587677,160.192810 196.299103,156.230591 189.699631,153.343933 
	C169.684052,144.588913 148.315933,140.241669 127.223656,134.971909 
	C122.840919,133.876907 120.651199,135.376709 118.605927,138.177155 
	C109.133957,151.146362 100.243195,164.401352 93.910149,179.347290 
	C81.947517,207.578949 76.899025,236.676163 79.861839,267.313141 
	C81.466576,283.906891 85.017242,299.931610 91.086662,315.341614 
	C99.410477,336.475403 110.794640,355.828186 126.876602,372.101349 
	C133.314850,378.616089 139.678787,385.333679 146.869141,390.942963 
	C155.869400,397.964203 165.685654,403.939453 175.618942,410.684875 
	C181.347122,377.570892 186.863937,345.678619 192.456116,313.350769 
	C207.745865,315.925018 222.576889,315.486328 237.447998,308.614471 
	C230.027252,347.777008 220.076233,385.405518 208.309219,422.582275 
	C260.383179,439.404358 336.106689,430.650726 390.439606,370.609863 
	C437.500031,318.605438 450.919891,244.534973 420.949402,177.478317 
	C391.759125,112.167313 330.122223,77.853912 280.507843,73.334076 
	C276.557617,89.667931 264.339050,100.006844 247.220535,100.936523 
	C232.092484,101.758102 217.773849,92.515236 212.564346,77.489326 
	C194.390045,82.035049 166.602615,94.694717 161.662811,100.539116 
	C174.761566,102.707268 188.050003,104.695030 201.253876,107.139587 
	C223.834442,111.320137 246.493683,115.206306 268.877899,120.283104 
	C295.683594,126.362724 320.342163,137.159470 339.270172,158.102539 
	C346.276947,165.855240 351.727936,174.851013 352.803467,185.360168 
	C353.699402,194.114151 352.871796,203.044510 352.320953,212.592865 
M252.999390,201.541168 
	C251.335510,217.747498 249.671631,233.953842 247.908188,251.130005 
	C253.155167,249.778091 257.678589,248.760788 262.112610,247.442734 
	C276.257019,243.238205 289.607544,237.681519 300.230927,226.783875 
	C312.521942,214.175522 312.962463,192.097305 299.666443,180.553009 
	C287.467834,169.961533 272.478119,168.936096 257.271179,169.393631 
	C256.483673,169.417328 255.194153,171.414871 255.091095,172.577896 
	C254.264343,181.907516 253.666962,191.257492 252.999390,201.541168 
z"/>
<path fill="#FBFBFB" opacity="1.000000" stroke="none" 
	d="
M1415.562378,203.407150 
	C1421.539673,209.084167 1424.077393,215.887787 1423.947632,223.608688 
	C1423.850708,229.368439 1424.049438,235.330521 1422.652832,240.830963 
	C1419.502686,253.238876 1410.518433,259.906158 1398.336060,262.485443 
	C1395.157959,263.158295 1391.850098,263.485840 1388.599243,263.503052 
	C1370.620483,263.598358 1352.640869,263.548676 1334.328369,263.548676 
	C1334.328369,221.060898 1334.328369,178.854614 1334.328369,136.151978 
	C1340.813721,136.151978 1347.264038,136.049377 1353.710205,136.173172 
	C1367.461914,136.437286 1381.309937,135.912033 1394.935669,137.392929 
	C1410.268066,139.059326 1420.519287,148.511734 1420.966309,165.259750 
	C1421.089844,169.890152 1421.114746,174.585358 1420.502441,179.159470 
	C1419.430664,187.165146 1415.175171,193.368820 1407.983765,197.530106 
	C1410.705322,199.619659 1413.005249,201.385529 1415.562378,203.407150 
M1363.511353,245.447586 
	C1371.586792,245.117264 1379.729858,245.329941 1387.722046,244.332565 
	C1400.530396,242.734207 1406.972534,228.080551 1399.974121,217.009583 
	C1398.565063,214.780365 1396.391724,212.572830 1394.046631,211.473587 
	C1381.483398,205.584488 1368.183228,209.499954 1355.268799,208.185059 
	C1355.268799,221.111694 1355.268799,233.207199 1355.268799,245.447617 
	C1357.862915,245.447617 1360.189453,245.447617 1363.511353,245.447586 
M1375.479980,155.200150 
	C1368.717285,155.200150 1361.954712,155.200150 1355.296265,155.200150 
	C1355.296265,167.282639 1355.296265,178.709976 1355.296265,190.277954 
	C1364.077393,190.277954 1372.565796,190.213730 1381.052734,190.298462 
	C1387.728516,190.365112 1393.627808,188.446045 1396.853149,182.378052 
	C1400.357422,175.785431 1400.266479,168.575256 1396.710327,162.027328 
	C1395.363647,159.547684 1392.345459,157.182190 1389.626831,156.425720 
	C1385.450806,155.263718 1380.875488,155.536301 1375.479980,155.200150 
z"/>
<path fill="#FBFBFB" opacity="1.000000" stroke="none" 
	d="
M902.002686,163.386383 
	C901.270142,170.843323 901.037048,177.940277 899.647705,184.803162 
	C898.418945,190.872375 893.898804,194.880203 887.974548,197.737946 
	C897.146790,201.894363 903.135315,208.730118 904.397156,218.467270 
	C906.125061,231.800278 906.137451,245.000320 894.883423,255.164001 
	C889.162842,260.330414 882.049805,263.071991 874.864075,263.314514 
	C855.089661,263.981995 835.277954,263.545074 815.238586,263.545074 
	C815.238586,221.059387 815.238586,178.964355 815.238586,136.580490 
	C815.863525,136.456726 816.626221,136.174881 817.389282,136.173752 
	C834.717651,136.147964 852.063904,135.675446 869.368164,136.320404 
	C880.844116,136.748138 891.812378,139.944397 898.054810,150.965836 
	C900.083557,154.547714 900.723877,158.916016 902.002686,163.386383 
M836.000977,223.504898 
	C836.000977,230.773544 836.000977,238.042191 836.000977,245.933685 
	C847.615112,245.421249 858.682678,245.205231 869.700928,244.352203 
	C877.197510,243.771820 882.187500,238.474213 882.994568,231.483337 
	C884.243835,220.662079 880.608582,212.944992 872.782715,210.384415 
	C860.734924,206.442398 848.403748,209.084198 836.000977,208.283249 
	C836.000977,213.545288 836.000977,218.026398 836.000977,223.504898 
M862.296631,190.277954 
	C866.358826,188.957382 871.094604,188.543839 874.344910,186.130020 
	C881.411804,180.881805 880.851257,173.123825 879.080017,165.409332 
	C877.620789,159.053574 872.786621,155.827026 867.191711,155.419067 
	C856.968140,154.673630 846.651367,155.206985 836.232910,155.206985 
	C836.232910,167.121689 836.232910,178.537964 836.232910,190.277985 
	C844.753662,190.277985 853.047180,190.277985 862.296631,190.277954 
z"/>
<path fill="#FCFCFC" opacity="1.000000" stroke="none" 
	d="
M601.951050,263.547272 
	C586.164795,263.547272 570.870728,263.547272 555.286621,263.547272 
	C555.286621,221.027664 555.286621,178.842728 555.286621,136.152908 
	C568.794128,136.152908 582.240479,135.794968 595.656128,136.281830 
	C604.247620,136.593613 612.906189,137.593781 621.332703,139.289291 
	C632.551880,141.546722 639.944763,149.103546 643.890198,159.528397 
	C650.541992,177.104370 651.002808,195.347290 649.165405,213.894730 
	C648.267883,222.954483 646.735840,231.600311 643.296936,240.092422 
	C637.975830,253.232666 628.073547,260.046326 614.675781,262.483521 
	C610.666443,263.212830 606.524475,263.213043 601.951050,263.547272 
M584.565308,155.202744 
	C581.794067,155.202744 579.022766,155.202744 576.211731,155.202744 
	C576.211731,185.232269 576.211731,214.660141 576.211731,244.441360 
	C584.535767,244.441360 592.660095,244.270615 600.774475,244.482040 
	C612.469604,244.786774 621.012817,237.756989 624.028687,227.739380 
	C629.521057,209.495682 628.887268,191.142151 624.945557,172.781876 
	C622.499817,161.389847 613.802551,155.705811 602.537537,155.243225 
	C596.884277,155.011078 591.213562,155.202759 584.565308,155.202744 
z"/>
<path fill="#FCFCFC" opacity="1.000000" stroke="none" 
	d="
M1603.994141,194.000000 
	C1603.994141,173.214920 1603.994141,152.929825 1603.994141,132.396484 
	C1611.093750,132.396484 1617.820190,132.396484 1624.907837,132.396484 
	C1624.907837,145.997070 1624.907837,159.431076 1624.907837,172.135193 
	C1633.741455,170.802826 1642.361084,168.197083 1650.886475,168.475845 
	C1671.656372,169.154999 1680.088257,178.081451 1682.852295,198.820648 
	C1684.092407,208.125122 1684.314209,217.684265 1683.825806,227.066818 
	C1683.334351,236.505447 1681.745483,245.848938 1675.452271,253.806763 
	C1670.283936,260.342377 1663.187256,263.655853 1655.734253,264.261017 
	C1642.982178,265.296387 1630.085083,264.624451 1617.250122,264.515625 
	C1612.885254,264.478607 1608.524414,263.977631 1603.994141,263.677551 
	C1603.994141,240.113083 1603.994141,217.306534 1603.994141,194.000000 
M1662.756226,223.006424 
	C1662.495850,216.602142 1662.952393,210.067459 1661.816284,203.822495 
	C1659.843872,192.979279 1656.215942,186.345673 1642.474121,187.343811 
	C1638.137573,187.658813 1633.839722,188.670547 1629.558472,189.533463 
	C1626.363892,190.177353 1624.774414,191.758362 1624.883179,195.590240 
	C1625.213135,207.215546 1625.002808,218.856155 1625.002808,230.490814 
	C1625.002808,235.767136 1625.002808,241.043457 1625.002808,246.481628 
	C1629.190430,246.481628 1632.850220,246.342743 1636.496216,246.507324 
	C1648.008545,247.027039 1658.831421,246.033386 1661.630737,230.154572 
	C1662.000854,228.055695 1662.057251,225.901535 1662.756226,223.006424 
z"/>
<path fill="#FAFAFA" opacity="1.000000" stroke="none" 
	d="
M1928.846436,206.310364 
	C1931.490112,205.848541 1933.669312,205.387207 1935.730347,204.950882 
	C1935.848511,204.349930 1935.959717,204.030518 1935.967529,203.708649 
	C1936.313843,189.227722 1929.320068,183.553711 1914.950684,186.262955 
	C1910.626587,187.078217 1906.124756,186.925186 1901.712036,187.303329 
	C1897.320557,187.679626 1892.938599,188.166000 1888.588257,188.600540 
	C1887.996216,184.830368 1887.423950,181.644745 1887.009399,178.438736 
	C1886.389526,173.645462 1887.569214,172.094299 1894.263550,171.330795 
	C1905.809937,170.013916 1917.408936,168.612717 1929.000610,168.473526 
	C1934.586670,168.406448 1940.720459,170.163818 1945.696777,172.807251 
	C1954.386353,177.423203 1956.631104,186.402756 1956.897217,195.439529 
	C1957.318604,209.745514 1957.009521,224.073013 1957.009888,238.391403 
	C1957.010132,246.072769 1957.957642,247.499146 1964.886353,250.133652 
	C1964.886353,255.061432 1964.886353,260.029022 1964.886353,265.188965 
	C1956.728516,266.465088 1949.266846,264.842529 1942.036621,261.198303 
	C1940.461914,260.404663 1937.958374,260.172394 1936.390625,260.852509 
	C1925.207031,265.703339 1913.431763,266.379059 1901.638794,265.402344 
	C1890.771118,264.502258 1882.609497,254.208450 1882.054077,241.750809 
	C1881.841187,236.975861 1881.798584,232.073151 1882.624268,227.395599 
	C1884.737793,215.422607 1893.931885,210.641388 1904.409058,208.515091 
	C1912.227051,206.928467 1920.378662,206.985687 1928.846436,206.310364 
M1907.959229,225.395599 
	C1903.963989,228.104034 1903.044434,232.217789 1903.024780,236.624130 
	C1902.990234,244.407013 1907.073242,248.835434 1914.726074,248.335938 
	C1920.856812,247.935806 1926.944092,246.558670 1932.979492,245.279282 
	C1934.153442,245.030426 1935.818237,243.267319 1935.862915,242.147202 
	C1936.132568,235.376297 1935.996948,228.589233 1935.996948,220.981873 
	C1928.679810,221.645233 1921.848511,222.128159 1915.059570,222.958923 
	C1912.880127,223.225632 1910.812866,224.410797 1907.959229,225.395599 
z"/>
<path fill="#FAFAFA" opacity="1.000000" stroke="none" 
	d="
M1492.881348,260.558197 
	C1481.801392,265.956879 1470.282104,266.387146 1458.838623,265.377563 
	C1449.853149,264.584900 1443.477539,259.269623 1440.476929,250.454803 
	C1437.771606,242.507996 1436.971191,234.382065 1439.163940,226.245361 
	C1442.179932,215.054367 1449.232422,210.671768 1462.943970,208.342392 
	C1467.917969,207.497391 1472.939697,206.866806 1477.964233,206.405457 
	C1482.835571,205.958191 1487.738403,205.853806 1493.404907,205.558243 
	C1492.723633,201.070862 1492.425171,197.164764 1491.489502,193.417786 
	C1490.225220,188.355179 1485.794312,186.529007 1481.411621,186.458420 
	C1472.514038,186.315125 1463.598755,186.973068 1454.698730,187.450577 
	C1451.300171,187.632935 1447.923706,188.225876 1444.242065,188.667068 
	C1444.126343,187.061874 1444.006470,186.117661 1443.998047,185.172440 
	C1443.881592,172.154282 1443.851318,171.873596 1456.637329,170.321609 
	C1466.078125,169.175690 1475.619751,168.414886 1485.121460,168.360870 
	C1492.459473,168.319168 1499.696655,170.052338 1505.446045,175.253250 
	C1510.623657,179.936996 1512.923340,186.016708 1512.975220,192.861847 
	C1513.087524,207.678680 1512.983765,222.497025 1513.019897,237.314621 
	C1513.039673,245.419479 1514.497314,247.471786 1521.758789,249.978043 
	C1521.403442,254.995636 1521.046875,260.032013 1520.674805,265.286469 
	C1512.481445,266.283417 1504.788940,265.064026 1497.589233,260.753143 
	C1496.493408,260.096924 1494.733765,260.549133 1492.881348,260.558197 
M1466.804688,224.087067 
	C1465.154053,225.418655 1463.140381,226.480774 1461.916992,228.129425 
	C1457.137939,234.570480 1458.740723,247.427216 1467.397461,247.855103 
	C1475.301880,248.245804 1483.351440,245.941818 1491.306396,244.637756 
	C1491.988403,244.525940 1492.907104,243.011978 1492.923340,242.134613 
	C1493.055176,235.041061 1492.997192,227.943985 1492.997192,220.716644 
	C1484.156616,221.702896 1475.777954,222.637619 1466.804688,224.087067 
z"/>
<path fill="#FBFBFB" opacity="1.000000" stroke="none" 
	d="
M1245.418701,264.344727 
	C1235.376953,264.522888 1225.646973,265.321411 1216.094482,264.358521 
	C1203.556519,263.094757 1195.881348,254.763367 1192.123413,243.272614 
	C1188.491821,232.168839 1186.580200,220.684036 1188.976318,208.920929 
	C1190.304688,202.398849 1191.094727,195.707001 1193.081787,189.391922 
	C1197.045532,176.794601 1206.613770,171.061295 1219.246216,169.126923 
	C1227.966431,167.791626 1236.371826,168.334854 1245.000488,170.056213 
	C1258.281494,172.705658 1265.495850,181.545578 1268.742432,193.434738 
	C1273.205688,209.779526 1273.449097,226.459503 1267.987061,242.805862 
	C1264.339600,253.721420 1257.465576,261.480957 1245.418701,264.344727 
M1236.801636,247.112000 
	C1242.913086,245.446899 1247.207520,241.523941 1247.916504,235.329300 
	C1249.054443,225.385773 1250.116943,215.299103 1249.651367,205.345886 
	C1249.220093,196.126480 1245.149170,188.173096 1234.519897,186.582153 
	C1224.922485,185.145645 1215.243408,187.462616 1212.302612,197.184799 
	C1208.381958,210.146820 1208.711060,223.549255 1212.226562,236.646088 
	C1213.831299,242.624466 1218.269531,246.473602 1224.500244,247.337540 
	C1228.253418,247.857971 1232.139038,247.422638 1236.801636,247.112000 
z"/>
<path fill="#FBFBFB" opacity="1.000000" stroke="none" 
	d="
M1717.220215,173.181580 
	C1727.749512,168.012726 1738.371216,167.555313 1749.510376,168.927887 
	C1760.645142,170.299911 1769.981812,174.558197 1775.253296,184.431702 
	C1778.557739,190.620789 1780.919556,197.876846 1781.507324,204.839630 
	C1782.894165,221.269226 1783.481567,237.947510 1773.870972,252.695969 
	C1768.568359,260.833252 1760.098999,264.394806 1751.025146,265.326782 
	C1743.558350,266.093689 1735.864746,265.248657 1728.322388,264.562103 
	C1712.265625,263.100494 1704.334473,252.418549 1701.169800,238.111755 
	C1697.396118,221.052597 1696.848755,203.646851 1704.353394,187.380020 
	C1706.876099,181.911880 1712.592041,177.917007 1717.220215,173.181580 
M1726.152344,191.687988 
	C1725.111694,193.338943 1723.705688,194.864655 1723.089844,196.661255 
	C1719.155396,208.136261 1719.083618,219.977203 1721.309570,231.669312 
	C1722.546875,238.168381 1724.750122,245.096100 1732.789795,246.670410 
	C1736.458008,247.388718 1740.302002,247.439926 1744.062500,247.404129 
	C1749.861084,247.348938 1754.738037,245.173492 1756.909424,239.446976 
	C1758.570557,235.066833 1760.191772,230.486725 1760.658325,225.876892 
	C1761.638550,216.192596 1761.518555,206.417450 1758.283203,197.060913 
	C1754.209473,185.279495 1736.505737,182.689209 1726.152344,191.687988 
z"/>
<path fill="#FBFBFB" opacity="1.000000" stroke="none" 
	d="
M1018.351746,245.170227 
	C1028.331299,248.498260 1037.505493,246.471161 1046.361694,242.515320 
	C1047.376587,242.061981 1047.918213,239.551743 1047.925781,237.991577 
	C1048.026733,217.172607 1047.993286,196.352966 1047.993286,175.533508 
	C1047.993286,173.912018 1047.993286,172.290527 1047.993286,170.448395 
	C1055.037231,170.448395 1061.639648,170.448395 1068.625366,170.448395 
	C1068.625366,201.273727 1068.625366,232.143829 1068.625366,263.282410 
	C1061.971558,263.282410 1055.200195,263.282410 1048.232178,263.282410 
	C1048.083740,261.895966 1047.935059,260.508087 1047.804077,259.284485 
	C1042.434204,261.219330 1037.397583,264.010284 1032.075684,264.751221 
	C1020.500854,266.362671 1008.042725,268.082062 999.401794,257.922516 
	C995.432251,253.255463 992.535645,246.177979 992.320679,240.081802 
	C991.507935,217.038101 991.993958,193.948624 991.993958,170.547455 
	C997.926453,170.547455 1004.656799,170.547455 1011.775513,170.547455 
	C1011.851318,172.109177 1011.995117,173.711121 1011.996643,175.313187 
	C1012.013062,192.468414 1011.766357,209.628754 1012.130859,226.776245 
	C1012.267700,233.212280 1012.353821,240.099930 1018.351746,245.170227 
z"/>
<path fill="#FCFCFC" opacity="1.000000" stroke="none" 
	d="
M1106.825806,170.225632 
	C1108.955078,170.225632 1110.610352,170.225632 1112.718140,170.225632 
	C1112.872070,171.753723 1113.012451,173.148849 1113.176514,174.777451 
	C1113.927002,174.577240 1114.709839,174.508347 1115.356079,174.174820 
	C1122.994263,170.233017 1131.061523,167.755234 1139.690308,168.269897 
	C1160.280029,169.497955 1167.287109,177.032501 1168.611572,195.155167 
	C1170.252075,217.605484 1169.004395,240.266876 1169.004395,263.193359 
	C1163.099243,263.193359 1156.375977,263.193359 1149.233521,263.193359 
	C1149.157104,261.693939 1149.007568,260.105164 1149.005981,258.516266 
	C1148.989136,241.197327 1149.021851,223.878311 1148.958618,206.559601 
	C1148.951538,204.623032 1148.280151,202.696198 1148.182007,200.751480 
	C1147.592773,189.080933 1138.101074,185.305359 1126.489624,188.081314 
	C1125.698120,188.270508 1124.842041,188.170288 1124.029297,188.292725 
	C1114.466553,189.733490 1113.004517,191.428314 1113.004517,201.025665 
	C1113.004517,221.667358 1113.004639,242.309052 1113.004639,263.247620 
	C1106.045410,263.247620 1099.301025,263.247620 1092.274414,263.247620 
	C1092.274414,232.341919 1092.274414,201.489700 1092.274414,170.225632 
	C1097.102173,170.225632 1101.726929,170.225632 1106.825806,170.225632 
z"/>
<path fill="#F9F9F9" opacity="1.000000" stroke="none" 
	d="
M1818.908936,191.944183 
	C1816.289062,199.174225 1818.210693,202.654617 1825.191162,204.306900 
	C1834.929688,206.611938 1844.737061,208.683090 1854.358765,211.406708 
	C1863.337036,213.948212 1868.914795,221.894516 1868.985840,231.218567 
	C1869.021240,235.861877 1869.387695,240.614822 1868.568970,245.130447 
	C1866.494507,256.571136 1858.403076,263.085419 1847.718994,264.212463 
	C1835.718384,265.478394 1823.456787,264.499847 1811.320312,264.126343 
	C1806.983154,263.992889 1802.679443,262.774780 1798.231079,262.030029 
	C1798.231079,256.320282 1798.231079,250.578552 1798.231079,244.134949 
	C1802.571655,244.587906 1806.600586,245.014221 1810.630981,245.427643 
	C1816.973633,246.078262 1823.311157,247.133820 1829.662354,247.225266 
	C1834.149780,247.289886 1838.875122,246.671539 1843.091431,245.202087 
	C1847.171753,243.780106 1848.678223,239.973557 1848.027100,235.440857 
	C1847.361938,230.809555 1843.982788,229.378510 1840.240479,228.446808 
	C1830.698120,226.071045 1821.096313,223.933594 1811.561035,221.530792 
	C1802.264404,219.188141 1798.362549,212.791473 1796.763550,203.537231 
	C1795.385132,195.560379 1796.551636,188.383179 1800.354614,181.776215 
	C1804.887939,173.900314 1813.027832,170.867676 1821.434692,169.294388 
	C1835.369873,166.686523 1849.061401,169.392883 1862.698853,172.137268 
	C1863.954712,172.389984 1865.278198,172.307083 1866.933716,172.400543 
	C1866.517578,178.337570 1866.118042,184.037918 1865.689941,190.146500 
	C1861.632080,189.856949 1857.437378,189.607300 1853.252197,189.248001 
	C1846.075562,188.631851 1838.909790,187.528824 1831.729858,187.445999 
	C1827.324707,187.395203 1822.467163,187.614716 1818.908936,191.944183 
z"/>
<path fill="#FCFCFC" opacity="1.000000" stroke="none" 
	d="
M958.777283,194.277405 
	C957.630798,194.628891 956.924683,195.128845 956.156982,195.255630 
	C946.659180,196.824280 945.413452,202.838684 945.785217,211.429398 
	C946.526123,228.552429 946.004700,245.730072 946.004700,263.214844 
	C939.074097,263.214844 932.340149,263.214844 925.297974,263.214844 
	C925.297974,232.362244 925.297974,201.500580 925.297974,170.431976 
	C932.088074,170.431976 938.692200,170.431976 945.919128,170.431976 
	C945.919128,173.613327 945.919128,176.805222 945.919128,179.715286 
	C956.250671,175.458008 966.142700,171.381805 976.998291,166.908569 
	C976.998291,174.777573 977.112366,181.232681 976.868103,187.674179 
	C976.833740,188.579651 975.181824,189.863510 974.045715,190.211273 
	C969.140808,191.712753 964.149170,192.931091 958.777283,194.277405 
z"/>
<path fill="#FCFCFC" opacity="1.000000" stroke="none" 
	d="
M1537.995361,210.000000 
	C1537.995361,196.552124 1537.995361,183.604233 1537.995361,170.443756 
	C1545.058105,170.443756 1551.661133,170.443756 1558.712036,170.443756 
	C1558.712036,173.473007 1558.712036,176.539536 1558.712036,179.650803 
	C1569.031494,175.438644 1578.965576,171.383835 1589.999512,166.880035 
	C1589.999512,174.707077 1590.113647,181.118362 1589.876099,187.516571 
	C1589.840698,188.470215 1588.310059,189.841171 1587.202881,190.207031 
	C1578.678589,193.023758 1570.030273,195.478104 1561.579712,198.491547 
	C1560.299072,198.948196 1559.130615,201.708038 1559.114014,203.414200 
	C1558.937622,221.571594 1559.004517,239.731339 1559.004517,257.890442 
	C1559.004517,259.549316 1559.004639,261.208160 1559.004639,263.205841 
	C1552.083618,263.205841 1545.354370,263.205841 1537.995361,263.205841 
	C1537.995361,245.660522 1537.995361,228.080261 1537.995361,210.000000 
z"/>
<path fill="#FCFCFC" opacity="1.000000" stroke="none" 
	d="
M701.208252,175.195206 
	C708.355774,172.622345 715.124695,170.117889 722.992371,167.206894 
	C722.992371,174.799423 723.111450,181.337357 722.846252,187.859680 
	C722.811890,188.704269 720.903809,189.822540 719.673218,190.211655 
	C711.879333,192.676117 704.042480,195.007187 696.196838,197.303925 
	C693.048279,198.225632 691.899231,200.032791 691.926575,203.433212 
	C692.085999,223.252274 692.004700,243.073273 692.004700,263.219055 
	C685.070190,263.219055 678.334656,263.219055 671.294556,263.219055 
	C671.294556,232.358231 671.294556,201.496887 671.294556,170.430328 
	C677.758240,170.430328 684.028687,170.430328 690.763794,170.430328 
	C690.763794,173.821503 690.763794,177.208527 690.763794,181.242935 
	C694.534790,179.002884 697.682190,177.133255 701.208252,175.195206 
z"/>
<path fill="#FCFCFC" opacity="1.000000" stroke="none" 
	d="
M1364.903809,355.955170 
	C1370.076782,341.273712 1375.149780,326.977844 1380.170288,312.830200 
	C1384.163940,312.830200 1387.811646,312.830200 1391.730957,312.830200 
	C1391.730957,334.377167 1391.730957,355.784973 1391.730957,377.519775 
	C1389.719604,377.519775 1387.663086,377.519775 1385.174316,377.519775 
	C1385.174316,358.902740 1385.174316,340.188538 1385.174316,321.474335 
	C1384.867310,321.414520 1384.560181,321.354706 1384.253174,321.294891 
	C1379.177368,335.466492 1374.106201,349.639771 1369.021118,363.808044 
	C1368.142456,366.256317 1367.010132,368.631683 1366.345581,371.133850 
	C1365.586548,373.991913 1364.963135,376.084106 1361.049805,376.009918 
	C1357.271362,375.938263 1356.016357,374.345551 1354.918579,371.129852 
	C1349.337524,354.782837 1343.529419,338.513275 1337.774536,322.225952 
	C1337.530640,321.535583 1337.026611,320.937195 1336.077148,319.346588 
	C1336.077148,339.368042 1336.077148,358.263275 1336.077148,377.618469 
	C1334.098022,377.712891 1332.373779,377.795166 1330.310425,377.893585 
	C1330.310425,356.242554 1330.310425,334.812744 1330.310425,313.035156 
	C1333.888184,313.035156 1337.625610,313.035156 1341.490112,313.035156 
	C1347.739014,330.716492 1354.072144,348.635986 1360.706665,367.408142 
	C1362.248657,363.242920 1363.526245,359.791809 1364.903809,355.955170 
z"/>
<path fill="#F9F9F9" opacity="1.000000" stroke="none" 
	d="
M1257.332642,369.069885 
	C1255.213989,375.662720 1249.729736,377.338074 1244.486816,377.671539 
	C1234.570312,378.302216 1224.585205,377.853882 1214.309570,377.853882 
	C1214.309570,356.077698 1214.309570,334.560516 1214.309570,312.227051 
	C1224.407593,312.708313 1234.444824,313.041931 1244.459595,313.713135 
	C1251.524780,314.186676 1255.456421,318.977295 1256.671143,325.261505 
	C1257.931641,331.783417 1257.091675,338.329376 1251.300903,343.051025 
	C1250.938721,343.346222 1250.719849,343.816986 1250.240967,344.469574 
	C1260.205200,350.294403 1260.487915,359.061920 1257.332642,369.069885 
M1245.836304,349.105255 
	C1237.717163,348.481781 1229.598022,347.858337 1221.005981,347.198578 
	C1221.005981,352.122314 1221.005981,356.069000 1221.005981,360.015686 
	C1221.005981,363.910126 1221.005981,367.804565 1221.005981,371.581512 
	C1222.105347,371.727509 1222.427612,371.807068 1222.750244,371.807709 
	C1228.560059,371.818939 1234.406738,371.418335 1240.168823,371.944946 
	C1245.257446,372.410034 1250.449463,368.593994 1251.790283,364.188293 
	C1253.486206,358.615051 1251.302124,352.855682 1245.836304,349.105255 
M1221.005127,334.407715 
	C1221.005127,336.811432 1221.005127,339.215179 1221.005127,341.759552 
	C1227.591431,341.759552 1233.395386,341.786102 1239.198975,341.751862 
	C1244.651367,341.719696 1249.044067,337.831879 1249.964478,332.300659 
	C1250.965332,326.285675 1248.279785,320.932831 1242.421509,319.897400 
	C1235.559204,318.684601 1228.466553,318.773499 1221.005127,318.265839 
	C1221.005127,323.869141 1221.005127,328.651306 1221.005127,334.407715 
z"/>
<path fill="#F9F9F9" opacity="1.000000" stroke="none" 
	d="
M1663.015137,312.678833 
	C1669.583984,313.009613 1675.731445,312.858429 1681.709961,313.790771 
	C1689.518677,315.008575 1694.058838,320.799438 1693.955444,328.610382 
	C1693.896973,333.030029 1693.782593,337.559570 1692.784058,341.826874 
	C1691.650757,346.670441 1688.181519,349.919678 1682.470581,351.384186 
	C1686.724487,360.047760 1690.877441,368.505798 1695.268921,377.449463 
	C1692.384277,377.449463 1689.870728,377.449463 1687.302002,377.449463 
	C1683.794312,370.396057 1680.101440,363.251984 1676.698364,355.972443 
	C1675.525391,353.463318 1674.041992,352.628571 1671.342529,352.745941 
	C1666.394043,352.961060 1661.429443,352.807220 1656.056152,352.807220 
	C1656.056152,361.205811 1656.056152,369.289429 1656.056152,377.608734 
	C1653.919067,377.608734 1652.195435,377.608734 1650.227051,377.608734 
	C1650.227051,356.065308 1650.227051,334.643707 1650.227051,312.678833 
	C1654.307861,312.678833 1658.413208,312.678833 1663.015137,312.678833 
M1656.054077,319.630005 
	C1656.054077,328.556793 1656.054077,337.483551 1656.054077,346.776062 
	C1661.821655,346.776062 1667.116211,346.619507 1672.398560,346.805664 
	C1687.722900,347.345703 1689.265137,334.393738 1685.576660,325.191772 
	C1684.635132,322.842743 1681.299927,320.283295 1678.786255,319.955322 
	C1671.476807,319.001740 1664.026245,319.130432 1656.054077,319.630005 
z"/>
<path fill="#FAFAFA" opacity="1.000000" stroke="none" 
	d="
M992.990173,321.078308 
	C992.990173,318.102417 992.990173,315.614288 992.990173,312.697205 
	C1002.348938,312.697205 1011.566040,311.863434 1020.562012,312.917114 
	C1030.833984,314.120300 1036.001709,319.073914 1038.698608,331.327515 
	C1041.121704,342.336700 1040.679565,353.460876 1037.031860,364.327637 
	C1034.675781,371.346619 1027.362427,378.626160 1018.180420,377.973114 
	C1010.077026,377.396820 1001.900269,377.852509 992.990173,377.852509 
	C992.990173,358.997681 992.990173,340.281860 992.990173,321.078308 
M1024.006714,321.161804 
	C1023.173645,320.688110 1022.368103,319.863617 1021.503235,319.795929 
	C1014.167908,319.221893 1006.821716,318.785675 999.376221,318.301453 
	C999.376221,336.614044 999.376221,354.131287 999.376221,371.822662 
	C1005.224304,371.822662 1010.704590,371.827789 1016.184814,371.821381 
	C1023.315491,371.813019 1029.092896,367.359558 1030.951294,360.557892 
	C1033.463745,351.361847 1033.836548,342.023804 1031.793335,332.790833 
	C1030.837524,328.471161 1029.511353,323.744873 1024.006714,321.161804 
z"/>
<path fill="#FAFAFA" opacity="1.000000" stroke="none" 
	d="
M870.572388,359.622314 
	C874.888550,344.725677 878.885193,330.143860 883.176697,315.649353 
	C883.556091,314.367950 885.784180,312.985748 887.286682,312.813934 
	C890.896973,312.401184 894.586304,312.680359 898.418640,312.680359 
	C904.620422,334.203979 910.805725,355.670471 917.076355,377.433014 
	C912.328125,378.559479 909.824524,378.058075 908.567993,372.350708 
	C906.006653,360.717041 905.518494,360.824493 893.149292,360.824493 
	C888.003113,360.824493 882.856934,360.824524 877.379883,360.824524 
	C875.732727,366.435516 874.106384,371.975433 872.428711,377.690308 
	C870.572571,377.690308 868.618225,377.690308 865.680237,377.690308 
	C867.274963,371.611938 868.803406,365.786224 870.572388,359.622314 
M882.031555,343.646301 
	C881.068970,347.229156 880.106445,350.812012 879.083679,354.619110 
	C887.096191,354.619110 894.864136,354.619110 902.751587,354.619110 
	C902.842590,353.825317 903.120972,353.126831 902.959106,352.552460 
	C900.001282,342.057587 897.086792,331.547913 893.866211,321.133179 
	C893.476074,319.871521 891.374451,319.139160 889.567566,317.789001 
	C886.943420,326.956024 884.661743,334.926422 882.031555,343.646301 
z"/>
<path fill="#FAFAFA" opacity="1.000000" stroke="none" 
	d="
M1627.015747,343.963074 
	C1630.268433,355.463074 1633.514526,366.547638 1636.739990,377.561615 
	C1631.789429,379.021240 1629.003906,377.516144 1628.037231,372.232086 
	C1627.344604,368.445740 1626.804810,363.334442 1624.267700,361.536530 
	C1621.571411,359.625824 1616.600098,360.888062 1612.621338,360.835449 
	C1608.790161,360.784821 1604.942383,361.037018 1601.130859,360.759888 
	C1597.853516,360.521637 1596.326416,361.655792 1595.839355,364.929016 
	C1595.460083,367.477539 1594.172241,369.893036 1593.811401,372.441681 
	C1593.028320,377.972504 1589.887573,378.888885 1585.241821,377.385468 
	C1590.944336,357.201691 1596.695312,337.043671 1602.290283,316.842499 
	C1603.192749,313.583862 1604.677002,312.495819 1608.169556,312.574402 
	C1618.650513,312.810120 1618.510254,312.657898 1621.066284,322.893982 
	C1622.800903,329.840057 1625.011353,336.667297 1627.015747,343.963074 
M1620.905396,354.796417 
	C1621.476807,354.171875 1622.633423,353.409546 1622.524048,352.945374 
	C1621.854614,350.103760 1620.822021,347.350464 1620.052002,344.529144 
	C1617.953735,336.840088 1616.007812,329.107971 1613.778320,321.458008 
	C1613.459717,320.364685 1612.029663,319.272614 1610.873779,318.871368 
	C1610.218750,318.644012 1608.459717,319.646149 1608.244507,320.395172 
	C1605.020386,331.619415 1601.970825,342.893799 1598.903564,354.071411 
	C1599.496460,354.419647 1599.762085,354.711090 1600.029663,354.712952 
	C1606.688965,354.759949 1613.348389,354.776306 1620.905396,354.796417 
z"/>
<path fill="#F8F8F8" opacity="1.000000" stroke="none" 
	d="
M1068.019043,377.858398 
	C1063.885986,377.858398 1060.248901,377.858398 1056.300293,377.858398 
	C1056.300293,356.188965 1056.300293,334.790741 1056.300293,313.032196 
	C1069.341064,313.032196 1082.525269,313.032196 1095.781250,313.032196 
	C1095.781250,314.825439 1095.781250,316.590546 1095.781250,318.601074 
	C1084.928345,318.601074 1074.303345,318.601074 1063.346680,318.601074 
	C1063.346680,326.398285 1063.346680,333.954895 1063.346680,341.720825 
	C1072.060791,341.720825 1080.705322,341.720825 1089.777832,341.720825 
	C1089.875122,343.621948 1089.963501,345.348175 1090.074097,347.507874 
	C1081.110962,347.507874 1072.376709,347.507874 1063.329590,347.507874 
	C1063.329590,355.660309 1063.329590,363.410675 1063.329590,371.596130 
	C1073.943604,371.596130 1084.680420,371.596130 1095.798584,371.596130 
	C1095.892944,373.750366 1095.969360,375.493317 1096.072876,377.858398 
	C1086.712646,377.858398 1077.613770,377.858398 1068.019043,377.858398 
z"/>
<path fill="#F8F8F8" opacity="1.000000" stroke="none" 
	d="
M1153.028809,371.813385 
	C1160.496704,371.813385 1167.468506,371.813385 1174.725586,371.813385 
	C1174.725586,373.783905 1174.725586,375.522156 1174.725586,377.567169 
	C1161.711792,377.567169 1148.648804,377.567169 1135.284668,377.567169 
	C1135.284668,356.156464 1135.284668,334.754181 1135.284668,313.011963 
	C1148.218262,313.011963 1161.270874,313.011963 1174.783569,313.011963 
	C1174.867432,314.559235 1174.960815,316.282379 1175.077637,318.437286 
	C1164.098633,318.437286 1153.366943,318.437286 1142.325928,318.437286 
	C1142.325928,326.262482 1142.325928,333.682037 1142.325928,341.521362 
	C1150.952881,341.521362 1159.672119,341.521362 1168.789307,341.521362 
	C1168.887329,343.650238 1168.967163,345.386444 1169.066528,347.544678 
	C1160.094238,347.544678 1151.355103,347.544678 1142.316772,347.544678 
	C1142.316772,355.692871 1142.316772,363.440887 1142.316772,371.813385 
	C1145.669312,371.813385 1149.101074,371.813385 1153.028809,371.813385 
z"/>
<path fill="#F8F8F8" opacity="1.000000" stroke="none" 
	d="
M1312.760986,371.849854 
	C1313.569092,373.709961 1313.899658,375.539429 1314.278931,377.638184 
	C1300.986084,377.638184 1288.382568,377.638184 1275.381836,377.638184 
	C1275.381836,356.197540 1275.381836,334.657104 1275.381836,312.893890 
	C1288.011230,312.893890 1300.786743,312.893890 1313.788574,312.893890 
	C1313.788574,314.710358 1313.788574,316.478455 1313.788574,318.651215 
	C1303.317871,318.651215 1292.897705,318.651215 1282.249390,318.651215 
	C1282.249390,326.482910 1282.249390,333.914734 1282.249390,341.679260 
	C1291.098633,341.679260 1299.871826,341.679260 1308.826538,341.679260 
	C1308.826538,343.785187 1308.826538,345.560913 1308.826538,347.750854 
	C1299.946167,347.750854 1291.196045,347.750854 1282.235352,347.750854 
	C1282.235352,355.898865 1282.235352,363.634583 1282.235352,371.819244 
	C1292.394165,371.819244 1302.338989,371.819244 1312.760986,371.849854 
z"/>
<path fill="#F8F8F8" opacity="1.000000" stroke="none" 
	d="
M1457.959595,341.744781 
	C1461.773804,341.744781 1465.096069,341.744781 1468.715332,341.744781 
	C1468.715332,343.678589 1468.715332,345.419342 1468.715332,347.571014 
	C1460.083130,347.571014 1451.339722,347.571014 1442.307617,347.571014 
	C1442.307617,355.716339 1442.307617,363.462769 1442.307617,371.644897 
	C1452.665161,371.644897 1463.069214,371.644897 1473.739990,371.644897 
	C1473.739990,373.812958 1473.739990,375.554657 1473.739990,377.579102 
	C1461.014526,377.579102 1448.285278,377.579102 1435.269897,377.579102 
	C1435.269897,356.125031 1435.269897,334.718719 1435.269897,312.992249 
	C1447.906128,312.992249 1460.635010,312.992249 1473.802734,312.992249 
	C1473.880249,314.585205 1473.964600,316.316559 1474.069580,318.472290 
	C1463.413574,318.472290 1453.009521,318.472290 1442.311279,318.472290 
	C1442.311279,326.296875 1442.311279,333.720123 1442.311279,341.744781 
	C1447.317627,341.744781 1452.392578,341.744781 1457.959595,341.744781 
z"/>
<path fill="#FCFCFC" opacity="1.000000" stroke="none" 
	d="
M974.004700,353.975189 
	C973.968262,357.965759 974.553650,361.608978 973.765869,364.926178 
	C972.128357,371.821594 968.453979,377.404907 960.513794,377.870605 
	C954.218323,378.239807 947.797668,378.645081 941.591064,377.829010 
	C933.164124,376.721008 929.375183,370.240967 929.147400,362.553375 
	C928.660034,346.102783 928.998108,329.627747 928.998108,312.928162 
	C931.396240,312.928162 933.465698,312.928162 936.004700,312.928162 
	C936.004700,320.751617 936.004639,328.543549 936.004639,336.335480 
	C936.004639,344.165619 935.999207,351.995789 936.006165,359.825928 
	C936.012817,367.291779 941.454529,372.868896 948.949707,372.772247 
	C952.356018,372.728302 955.884338,372.556213 959.124756,371.629150 
	C963.341064,370.422913 967.298340,365.135590 967.152283,360.402130 
	C966.715759,346.254700 966.995361,332.085144 966.995361,317.924225 
	C966.995361,316.293823 966.995300,314.663452 966.995300,312.864258 
	C969.367554,312.864258 971.320740,312.864258 974.004700,312.864258 
	C974.004700,326.346375 974.004700,339.913300 974.004700,353.975189 
z"/>
<path fill="#F6F6F6" opacity="1.000000" stroke="none" 
	d="
M825.367004,378.842590 
	C822.178101,378.357910 819.456665,377.893494 816.203186,377.338287 
	C816.126892,375.967377 816.029907,374.224213 815.892944,371.763092 
	C822.961670,372.120544 829.782349,372.647034 836.610046,372.764709 
	C845.160950,372.912079 850.187744,367.615784 849.983643,359.097870 
	C849.862000,354.023468 846.384155,350.216034 840.491333,348.827148 
	C836.107239,347.793823 831.616394,347.131744 827.321289,345.819305 
	C817.344055,342.770630 813.248840,336.165833 815.072815,325.388702 
	C816.566406,316.563934 821.726440,312.623322 831.740173,311.830811 
	C838.246033,311.315887 844.885315,312.205566 851.443176,312.734009 
	C855.249573,313.040741 855.613831,314.209015 854.510010,318.748230 
	C846.086975,318.748230 837.836792,318.311401 829.664062,318.918365 
	C825.043091,319.261536 822.207214,322.728699 822.016052,327.724518 
	C821.756104,334.517975 823.168091,337.037933 828.612610,338.723602 
	C834.269775,340.475067 839.931641,342.296112 845.706177,343.564941 
	C856.393311,345.913269 857.920776,354.545746 856.799805,362.965393 
	C855.139526,375.436127 848.212585,379.115173 836.817566,378.879303 
	C833.157959,378.803528 829.495605,378.864441 825.367004,378.842590 
z"/>
<path fill="#F6F6F6" opacity="1.000000" stroke="none" 
	d="
M1496.176514,321.036682 
	C1489.733765,329.060516 1492.550293,337.527802 1501.945923,339.762390 
	C1506.938843,340.949921 1511.882568,342.345520 1516.842651,343.668610 
	C1526.593262,346.269379 1527.822021,350.797821 1527.796387,360.174591 
	C1527.779907,366.162750 1526.702881,372.838165 1520.194824,375.974792 
	C1517.080933,377.475677 1513.481812,378.640594 1510.073730,378.719543 
	C1503.170532,378.879517 1496.247681,378.201294 1489.333374,377.858124 
	C1483.564209,377.571869 1487.417114,374.227173 1487.177979,371.725525 
	C1494.247803,372.099304 1500.981567,372.359802 1507.699951,372.837738 
	C1514.230957,373.302368 1520.426392,368.679688 1520.910522,360.732300 
	C1521.346069,353.585510 1517.629761,350.400818 1510.598633,348.794464 
	C1506.521606,347.863007 1502.391846,347.082123 1498.407349,345.842377 
	C1487.943359,342.586731 1483.959473,336.148499 1486.074097,325.122864 
	C1487.713257,316.575836 1492.897827,312.382233 1503.521729,311.793732 
	C1509.730103,311.449829 1516.012451,312.260040 1522.250854,312.703247 
	C1527.135254,313.050323 1526.151245,316.372314 1525.752808,319.490631 
	C1519.302979,318.885315 1513.166748,317.850098 1507.041504,317.911224 
	C1503.507568,317.946442 1499.991089,319.752472 1496.176514,321.036682 
z"/>
<path fill="#F9F9F9" opacity="1.000000" stroke="none" 
	d="
M1555.874023,318.795532 
	C1549.081299,318.747375 1542.778320,318.747375 1536.235352,318.747375 
	C1536.235352,316.612671 1536.235352,314.852448 1536.235352,312.880859 
	C1552.054199,312.880859 1567.828369,312.880859 1583.807129,312.880859 
	C1583.807129,314.729706 1583.807129,316.500153 1583.807129,318.688538 
	C1576.938110,318.688538 1570.185425,318.688538 1563.041016,318.688538 
	C1563.041016,338.520874 1563.041016,357.942047 1563.041016,377.605957 
	C1560.921875,377.605957 1559.199951,377.605957 1556.988525,377.605957 
	C1556.988525,365.546051 1557.062866,353.594055 1556.961670,341.643524 
	C1556.897217,334.042450 1556.572021,326.443542 1555.874023,318.795532 
z"/>
<path fill="#F6F6F6" opacity="1.000000" stroke="none" 
	d="
M748.895752,262.536804 
	C741.373840,262.989319 733.956848,262.989319 726.259399,262.989319 
	C726.259399,254.458771 726.259399,245.707962 726.259399,236.670029 
	C733.657349,236.670029 741.071777,236.670029 749.000610,236.670029 
	C749.000610,245.204544 749.000610,253.644424 748.895752,262.536804 
z"/>
<path fill="#EEEEEE" opacity="1.000000" stroke="none" 
	d="
M952.911865,294.127014 
	C955.261719,292.885468 957.325012,291.898285 959.903015,290.664825 
	C960.857239,292.424530 961.847412,294.250488 963.198669,296.742279 
	C956.234009,299.734772 949.495300,302.630188 942.526855,305.624329 
	C941.689697,303.998962 940.961731,302.585571 939.956421,300.633698 
	C944.243042,298.518158 948.434204,296.449768 952.911865,294.127014 
z"/>
<path fill="#010101" opacity="1.000000" stroke="none" 
	d="
M352.564270,212.244812 
	C352.871796,203.044510 353.699402,194.114151 352.803467,185.360168 
	C351.727936,174.851013 346.276947,165.855240 339.270172,158.102539 
	C320.342163,137.159470 295.683594,126.362724 268.877899,120.283104 
	C246.493683,115.206306 223.834442,111.320137 201.253876,107.139587 
	C188.050003,104.695030 174.761566,102.707268 161.662811,100.539116 
	C166.602615,94.694717 194.390045,82.035049 212.564346,77.489326 
	C217.773849,92.515236 232.092484,101.758102 247.220535,100.936523 
	C264.339050,100.006844 276.557617,89.667931 280.507843,73.334076 
	C330.122223,77.853912 391.759125,112.167313 420.949402,177.478317 
	C450.919891,244.534973 437.500031,318.605438 390.439606,370.609863 
	C336.106689,430.650726 260.383179,439.404358 208.309219,422.582275 
	C220.076233,385.405518 230.027252,347.777008 237.447998,308.614471 
	C222.576889,315.486328 207.745865,315.925018 192.456116,313.350769 
	C186.863937,345.678619 181.347122,377.570892 175.618942,410.684875 
	C165.685654,403.939453 155.869400,397.964203 146.869141,390.942963 
	C139.678787,385.333679 133.314850,378.616089 126.876602,372.101349 
	C110.794640,355.828186 99.410477,336.475403 91.086662,315.341614 
	C85.017242,299.931610 81.466576,283.906891 79.861839,267.313141 
	C76.899025,236.676163 81.947517,207.578949 93.910149,179.347290 
	C100.243195,164.401352 109.133957,151.146362 118.605927,138.177155 
	C120.651199,135.376709 122.840919,133.876907 127.223656,134.971909 
	C148.315933,140.241669 169.684052,144.588913 189.699631,153.343933 
	C196.299103,156.230591 202.587677,160.192810 208.335831,164.561371 
	C214.452408,169.209900 211.171753,176.110016 210.586777,182.039764 
	C209.737808,190.645584 208.213211,199.184128 207.003571,207.755157 
	C205.724686,216.817017 204.446472,225.879150 203.225098,234.948883 
	C202.110199,243.227966 201.124222,251.524567 199.986237,259.800354 
	C198.582596,270.007965 197.069641,280.200500 195.629471,290.403137 
	C195.313690,292.640259 195.105530,294.892578 194.829391,297.298431 
	C211.476578,300.418243 227.093231,297.807556 242.760895,293.795197 
	C260.152588,289.341370 277.576965,284.428711 295.300415,282.061737 
	C307.216461,280.470367 319.929810,279.555695 331.728058,285.461151 
	C342.293091,290.749359 346.424103,302.433899 342.205719,313.326813 
	C337.248535,326.127594 327.563995,334.815796 317.151794,342.614288 
	C297.472351,357.353851 275.114136,367.076111 252.043472,375.143707 
	C247.897186,376.593628 245.851456,378.687805 245.987976,383.016205 
	C246.140350,387.846710 249.043015,391.655457 253.324356,392.874298 
	C262.581879,395.509766 271.570831,393.027283 280.221863,390.632904 
	C303.843689,384.095123 326.130310,374.283875 345.722992,359.347107 
	C359.803741,348.612488 371.313232,335.521149 377.102661,318.320984 
	C383.782013,298.476837 381.279968,279.304230 370.808105,261.586151 
	C364.088959,250.217575 353.682556,242.198639 342.067505,236.993439 
	C345.542267,228.724411 348.931610,220.658630 352.564270,212.244812 
z"/>
<path fill="#010101" opacity="1.000000" stroke="none" 
	d="
M252.999390,201.071198 
	C253.666962,191.257492 254.264343,181.907516 255.091095,172.577896 
	C255.194153,171.414871 256.483673,169.417328 257.271179,169.393631 
	C272.478119,168.936096 287.467834,169.961533 299.666443,180.553009 
	C312.962463,192.097305 312.521942,214.175522 300.230927,226.783875 
	C289.607544,237.681519 276.257019,243.238205 262.112610,247.442734 
	C257.678589,248.760788 253.155167,249.778091 247.908188,251.130005 
	C249.671631,233.953842 251.335510,217.747498 252.999390,201.071198 
z"/>
<path fill="#030303" opacity="1.000000" stroke="none" 
	d="
M1363.013672,245.447601 
	C1360.189453,245.447617 1357.862915,245.447617 1355.268799,245.447617 
	C1355.268799,233.207199 1355.268799,221.111694 1355.268799,208.185059 
	C1368.183228,209.499954 1381.483398,205.584488 1394.046631,211.473587 
	C1396.391724,212.572830 1398.565063,214.780365 1399.974121,217.009583 
	C1406.972534,228.080551 1400.530396,242.734207 1387.722046,244.332565 
	C1379.729858,245.329941 1371.586792,245.117264 1363.013672,245.447601 
z"/>
<path fill="#020202" opacity="1.000000" stroke="none" 
	d="
M1375.974854,155.200150 
	C1380.875488,155.536301 1385.450806,155.263718 1389.626831,156.425720 
	C1392.345459,157.182190 1395.363647,159.547684 1396.710327,162.027328 
	C1400.266479,168.575256 1400.357422,175.785431 1396.853149,182.378052 
	C1393.627808,188.446045 1387.728516,190.365112 1381.052734,190.298462 
	C1372.565796,190.213730 1364.077393,190.277954 1355.296265,190.277954 
	C1355.296265,178.709976 1355.296265,167.282639 1355.296265,155.200150 
	C1361.954712,155.200150 1368.717285,155.200150 1375.974854,155.200150 
z"/>
<path fill="#030303" opacity="1.000000" stroke="none" 
	d="
M836.000977,223.006195 
	C836.000977,218.026398 836.000977,213.545288 836.000977,208.283249 
	C848.403748,209.084198 860.734924,206.442398 872.782715,210.384415 
	C880.608582,212.944992 884.243835,220.662079 882.994568,231.483337 
	C882.187500,238.474213 877.197510,243.771820 869.700928,244.352203 
	C858.682678,245.205231 847.615112,245.421249 836.000977,245.933685 
	C836.000977,238.042191 836.000977,230.773544 836.000977,223.006195 
z"/>
<path fill="#020202" opacity="1.000000" stroke="none" 
	d="
M861.818665,190.277969 
	C853.047180,190.277985 844.753662,190.277985 836.232910,190.277985 
	C836.232910,178.537964 836.232910,167.121689 836.232910,155.206985 
	C846.651367,155.206985 856.968140,154.673630 867.191711,155.419067 
	C872.786621,155.827026 877.620789,159.053574 879.080017,165.409332 
	C880.851257,173.123825 881.411804,180.881805 874.344910,186.130020 
	C871.094604,188.543839 866.358826,188.957382 861.818665,190.277969 
z"/>
<path fill="#010101" opacity="1.000000" stroke="none" 
	d="
M585.058044,155.202759 
	C591.213562,155.202759 596.884277,155.011078 602.537537,155.243225 
	C613.802551,155.705811 622.499817,161.389847 624.945557,172.781876 
	C628.887268,191.142151 629.521057,209.495682 624.028687,227.739380 
	C621.012817,237.756989 612.469604,244.786774 600.774475,244.482040 
	C592.660095,244.270615 584.535767,244.441360 576.211731,244.441360 
	C576.211731,214.660141 576.211731,185.232269 576.211731,155.202744 
	C579.022766,155.202744 581.794067,155.202744 585.058044,155.202759 
z"/>
<path fill="#020202" opacity="1.000000" stroke="none" 
	d="
M1662.507568,223.389694 
	C1662.057251,225.901535 1662.000854,228.055695 1661.630737,230.154572 
	C1658.831421,246.033386 1648.008545,247.027039 1636.496216,246.507324 
	C1632.850220,246.342743 1629.190430,246.481628 1625.002808,246.481628 
	C1625.002808,241.043457 1625.002808,235.767136 1625.002808,230.490814 
	C1625.002808,218.856155 1625.213135,207.215546 1624.883179,195.590240 
	C1624.774414,191.758362 1626.363892,190.177353 1629.558472,189.533463 
	C1633.839722,188.670547 1638.137573,187.658813 1642.474121,187.343811 
	C1656.215942,186.345673 1659.843872,192.979279 1661.816284,203.822495 
	C1662.952393,210.067459 1662.495850,216.602142 1662.507568,223.389694 
z"/>
<path fill="#050505" opacity="1.000000" stroke="none" 
	d="
M1908.326782,225.285675 
	C1910.812866,224.410797 1912.880127,223.225632 1915.059570,222.958923 
	C1921.848511,222.128159 1928.679810,221.645233 1935.996948,220.981873 
	C1935.996948,228.589233 1936.132568,235.376297 1935.862915,242.147202 
	C1935.818237,243.267319 1934.153442,245.030426 1932.979492,245.279282 
	C1926.944092,246.558670 1920.856812,247.935806 1914.726074,248.335938 
	C1907.073242,248.835434 1902.990234,244.407013 1903.024780,236.624130 
	C1903.044434,232.217789 1903.963989,228.104034 1908.326782,225.285675 
z"/>
<path fill="#050505" opacity="1.000000" stroke="none" 
	d="
M1467.102051,223.829697 
	C1475.777954,222.637619 1484.156616,221.702896 1492.997192,220.716644 
	C1492.997192,227.943985 1493.055176,235.041061 1492.923340,242.134613 
	C1492.907104,243.011978 1491.988403,244.525940 1491.306396,244.637756 
	C1483.351440,245.941818 1475.301880,248.245804 1467.397461,247.855103 
	C1458.740723,247.427216 1457.137939,234.570480 1461.916992,228.129425 
	C1463.140381,226.480774 1465.154053,225.418655 1467.102051,223.829697 
z"/>
<path fill="#020202" opacity="1.000000" stroke="none" 
	d="
M1236.383423,247.264404 
	C1232.139038,247.422638 1228.253418,247.857971 1224.500244,247.337540 
	C1218.269531,246.473602 1213.831299,242.624466 1212.226562,236.646088 
	C1208.711060,223.549255 1208.381958,210.146820 1212.302612,197.184799 
	C1215.243408,187.462616 1224.922485,185.145645 1234.519897,186.582153 
	C1245.149170,188.173096 1249.220093,196.126480 1249.651367,205.345886 
	C1250.116943,215.299103 1249.054443,225.385773 1247.916504,235.329300 
	C1247.207520,241.523941 1242.913086,245.446899 1236.383423,247.264404 
z"/>
<path fill="#020202" opacity="1.000000" stroke="none" 
	d="
M1726.413086,191.426010 
	C1736.505737,182.689209 1754.209473,185.279495 1758.283203,197.060913 
	C1761.518555,206.417450 1761.638550,216.192596 1760.658325,225.876892 
	C1760.191772,230.486725 1758.570557,235.066833 1756.909424,239.446976 
	C1754.738037,245.173492 1749.861084,247.348938 1744.062500,247.404129 
	C1740.302002,247.439926 1736.458008,247.388718 1732.789795,246.670410 
	C1724.750122,245.096100 1722.546875,238.168381 1721.309570,231.669312 
	C1719.083618,219.977203 1719.155396,208.136261 1723.089844,196.661255 
	C1723.705688,194.864655 1725.111694,193.338943 1726.413086,191.426010 
z"/>
<path fill="#030303" opacity="1.000000" stroke="none" 
	d="
M1246.117310,349.403809 
	C1251.302124,352.855682 1253.486206,358.615051 1251.790283,364.188293 
	C1250.449463,368.593994 1245.257446,372.410034 1240.168823,371.944946 
	C1234.406738,371.418335 1228.560059,371.818939 1222.750244,371.807709 
	C1222.427612,371.807068 1222.105347,371.727509 1221.005981,371.581512 
	C1221.005981,367.804565 1221.005981,363.910126 1221.005981,360.015686 
	C1221.005981,356.069000 1221.005981,352.122314 1221.005981,347.198578 
	C1229.598022,347.858337 1237.717163,348.481781 1246.117310,349.403809 
z"/>
<path fill="#030303" opacity="1.000000" stroke="none" 
	d="
M1221.005127,333.920593 
	C1221.005127,328.651306 1221.005127,323.869141 1221.005127,318.265839 
	C1228.466553,318.773499 1235.559204,318.684601 1242.421509,319.897400 
	C1248.279785,320.932831 1250.965332,326.285675 1249.964478,332.300659 
	C1249.044067,337.831879 1244.651367,341.719696 1239.198975,341.751862 
	C1233.395386,341.786102 1227.591431,341.759552 1221.005127,341.759552 
	C1221.005127,339.215179 1221.005127,336.811432 1221.005127,333.920593 
z"/>
<path fill="#030303" opacity="1.000000" stroke="none" 
	d="
M1656.342529,319.232300 
	C1664.026245,319.130432 1671.476807,319.001740 1678.786255,319.955322 
	C1681.299927,320.283295 1684.635132,322.842743 1685.576660,325.191772 
	C1689.265137,334.393738 1687.722900,347.345703 1672.398560,346.805664 
	C1667.116211,346.619507 1661.821655,346.776062 1656.054077,346.776062 
	C1656.054077,337.483551 1656.054077,328.556793 1656.342529,319.232300 
z"/>
<path fill="#010101" opacity="1.000000" stroke="none" 
	d="
M1024.312622,321.413147 
	C1029.511353,323.744873 1030.837524,328.471161 1031.793335,332.790833 
	C1033.836548,342.023804 1033.463745,351.361847 1030.951294,360.557892 
	C1029.092896,367.359558 1023.315491,371.813019 1016.184814,371.821381 
	C1010.704590,371.827789 1005.224304,371.822662 999.376221,371.822662 
	C999.376221,354.131287 999.376221,336.614044 999.376221,318.301453 
	C1006.821716,318.785675 1014.167908,319.221893 1021.503235,319.795929 
	C1022.368103,319.863617 1023.173645,320.688110 1024.312622,321.413147 
z"/>
<path fill="#030303" opacity="1.000000" stroke="none" 
	d="
M882.205811,343.271545 
	C884.661743,334.926422 886.943420,326.956024 889.567566,317.789001 
	C891.374451,319.139160 893.476074,319.871521 893.866211,321.133179 
	C897.086792,331.547913 900.001282,342.057587 902.959106,352.552460 
	C903.120972,353.126831 902.842590,353.825317 902.751587,354.619110 
	C894.864136,354.619110 887.096191,354.619110 879.083679,354.619110 
	C880.106445,350.812012 881.068970,347.229156 882.205811,343.271545 
z"/>
<path fill="#030303" opacity="1.000000" stroke="none" 
	d="
M1620.456543,354.797272 
	C1613.348389,354.776306 1606.688965,354.759949 1600.029663,354.712952 
	C1599.762085,354.711090 1599.496460,354.419647 1598.903564,354.071411 
	C1601.970825,342.893799 1605.020386,331.619415 1608.244507,320.395172 
	C1608.459717,319.646149 1610.218750,318.644012 1610.873779,318.871368 
	C1612.029663,319.272614 1613.459717,320.364685 1613.778320,321.458008 
	C1616.007812,329.107971 1617.953735,336.840088 1620.052002,344.529144 
	C1620.822021,347.350464 1621.854614,350.103760 1622.524048,352.945374 
	C1622.633423,353.409546 1621.476807,354.171875 1620.456543,354.797272 
z"/>
</svg>